<?xml version="1.0" encoding="UTF-8"?>
<svg xmlns="http://www.w3.org/2000/svg" width="1150" height="648" viewBox="0 0 1150 648">
  <g id="background">
    <rect width="1150" height="648"/>
  </g>
  <g id="panels">
    <g>
      <rect x="908" y="378" width="236" height="132" fill="#25252d"/>
      <polygon points="908 378 906 376 1146 376 1144 378 908 378" fill="#606072"/>
      <polygon points="1144 510 1146 512 906 512 908 510 1144 510" fill="#131316"/>
      <polygon points="1144 378 1146 376 1146 512 1144 510 1144 378" fill="#3f3f49"/>
      <polygon points="908 510 906 512 906 376 908 378 908 510" fill="#4f4f5b"/>
    </g>
    <g>
      <rect x="908" y="292" width="236" height="80" fill="#25252d"/>
      <polygon points="908 292 906 290 1146 290 1144 292 908 292" fill="#606072"/>
      <polygon points="1144 372 1146 374 906 374 908 372 1144 372" fill="#131316"/>
      <polygon points="1144 292 1146 290 1146 374 1144 372 1144 292" fill="#3f3f49"/>
      <polygon points="908 372 906 374 906 290 908 292 908 372" fill="#4f4f5b"/>
    </g>
    <g>
      <rect x="908" y="68" width="236" height="218" fill="#25252d"/>
      <polygon points="908 68 906 66 1146 66 1144 68 908 68" fill="#606072"/>
      <polygon points="1144 286 1146 288 906 288 908 286 1144 286" fill="#131316"/>
      <polygon points="1144 68 1146 66 1146 288 1144 286 1144 68" fill="#3f3f49"/>
      <polygon points="908 286 906 288 906 66 908 68 908 286" fill="#4f4f5b"/>
    </g>
    <g>
      <rect x="908" y="6" width="236" height="56" fill="#25252d"/>
      <polygon points="908 6 906 4 1146 4 1144 6 908 6" fill="#606072"/>
      <polygon points="1144 62 1146 64 906 64 908 62 1144 62" fill="#131316"/>
      <polygon points="1144 6 1146 4 1146 64 1144 62 1144 6" fill="#3f3f49"/>
      <polygon points="908 62 906 64 906 4 908 6 908 62" fill="#4f4f5b"/>
    </g>
    <g>
      <rect x="6" y="6" width="896" height="56" fill="#25252d"/>
      <polygon points="6 6 4 4 904 4 902 6 6 6" fill="#606072"/>
      <polygon points="902 62 904 64 4 64 6 62 902 62" fill="#131316"/>
      <polygon points="902 6 904 4 904 64 902 62 902 6" fill="#3f3f49"/>
      <polygon points="6 62 4 64 4 4 6 6 6 62" fill="#4f4f5b"/>
    </g>
    <g>
      <rect x="6" y="68" width="896" height="356" fill="#25252d"/>
      <polygon points="6 68 4 66 904 66 902 68 6 68" fill="#606072"/>
      <polygon points="902 424 904 426 4 426 6 424 902 424" fill="#131316"/>
      <polygon points="902 68 904 66 904 426 902 424 902 68" fill="#3f3f49"/>
      <polygon points="6 424 4 426 4 66 6 68 6 424" fill="#4f4f5b"/>
    </g>
    <g>
      <rect x="726" y="430" width="176" height="80" fill="#25252d"/>
      <polygon points="726 430 724 428 904 428 902 430 726 430" fill="#606072"/>
      <polygon points="902 510 904 512 724 512 726 510 902 510" fill="#131316"/>
      <polygon points="902 430 904 428 904 512 902 510 902 430" fill="#3f3f49"/>
      <polygon points="726 510 724 512 724 428 726 430 726 510" fill="#4f4f5b"/>
    </g>
    <g>
      <rect x="402" y="430" width="318" height="80" fill="#25252d"/>
      <polygon points="402 430 400 428 722 428 720 430 402 430" fill="#606072"/>
      <polygon points="720 510 722 512 400 512 402 510 720 510" fill="#131316"/>
      <polygon points="720 430 722 428 722 512 720 510 720 430" fill="#3f3f49"/>
      <polygon points="402 510 400 512 400 428 402 430 402 510" fill="#4f4f5b"/>
    </g>
    <g>
      <rect x="188" y="430" width="208" height="80" fill="#25252d"/>
      <polygon points="188 430 186 428 398 428 396 430 188 430" fill="#606072"/>
      <polygon points="396 510 398 512 186 512 188 510 396 510" fill="#131316"/>
      <polygon points="396 430 398 428 398 512 396 510 396 430" fill="#3f3f49"/>
      <polygon points="188 510 186 512 186 428 188 430 188 510" fill="#4f4f5b"/>
    </g>
    <g>
      <rect x="6" y="430" width="176" height="80" fill="#25252d"/>
      <polygon points="6 430 4 428 184 428 182 430 6 430" fill="#606072"/>
      <polygon points="182 510 184 512 4 512 6 510 182 510" fill="#131316"/>
      <polygon points="182 430 184 428 184 512 182 510 182 430" fill="#3f3f49"/>
      <polygon points="6 510 4 512 4 428 6 430 6 510" fill="#4f4f5b"/>
    </g>
    <g>
      <rect x="6" y="516" width="1138" height="126" fill="#25252d"/>
      <polygon points="6 516 4 514 1146 514 1144 516 6 516" fill="#606072"/>
      <polygon points="1144 642 1146 644 4 644 6 642 1144 642" fill="#131316"/>
      <polygon points="1144 516 1146 514 1146 644 1144 642 1144 516" fill="#3f3f49"/>
      <polygon points="6 642 4 644 4 514 6 516 6 642" fill="#4f4f5b"/>
    </g>
  </g>
  <g id="Layer_1" data-name="Layer 1">
    <g>
      <path d="M919.705,143.81c-.374,0-.692-.319-.692-.704v-6.623h1.408v6.106h3.872v1.221h-4.588Z" fill="#bcbcbc"/>
      <path d="M926.25,143.81c-.385,0-.704-.319-.704-.704v-5.919c0-.385.319-.704.704-.704h4.555v1.21h-3.851v1.761h2.904c.342,0,.616.274.616.604,0,.342-.274.605-.616.605h-2.904v1.937h3.861v1.21h-4.565Z" fill="#bcbcbc"/>
      <path d="M935.623,143.48c-.099.253-.341.396-.605.396s-.495-.144-.594-.396l-2.871-6.997h1.396l2.068,5.127,2.068-5.127h1.387l-2.85,6.997Z" fill="#bcbcbc"/>
      <path d="M940.099,143.81c-.386,0-.704-.319-.704-.704v-5.919c0-.385.318-.704.704-.704h4.555v1.21h-3.851v1.761h2.904c.341,0,.616.274.616.604,0,.342-.275.605-.616.605h-2.904v1.937h3.861v1.21h-4.565Z" fill="#bcbcbc"/>
      <path d="M947.029,143.81c-.374,0-.693-.319-.693-.704v-6.623h1.408v6.106h3.873v1.221h-4.588Z" fill="#bcbcbc"/>
    </g>
    <g>
      <path d="M981.321,107.271l-.639-1.64h-2.838l-.639,1.64h-1.441l2.916-7.008c.109-.253.342-.396.583-.396.253,0,.484.144.595.396l2.904,7.008h-1.441ZM979.264,101.935l-1.001,2.586h2.014l-1.013-2.586Z" fill="#bcbcbc"/>
      <path d="M989.791,107.271v-4.632l-1.716,2.751c-.088.132-.265.297-.551.297-.275,0-.451-.176-.539-.309l-1.727-2.739v4.632h-1.354v-6.722c0-.374.275-.683.671-.683.253,0,.44.11.562.297l2.387,3.729,2.388-3.729c.121-.187.319-.297.572-.297.374,0,.659.297.659.671v6.733h-1.353Z" fill="#bcbcbc"/>
      <path d="M1000.12,103.618c0,2.102-1.54,3.773-3.752,3.773s-3.751-1.672-3.751-3.773,1.54-3.785,3.751-3.785,3.752,1.684,3.752,3.785ZM998.724,103.618c0-1.464-.924-2.53-2.355-2.53s-2.343,1.066-2.343,2.53.913,2.52,2.343,2.52,2.355-1.057,2.355-2.52Z" fill="#bcbcbc"/>
      <path d="M1007.886,104.323c0,1.628-1.232,3.069-3.201,3.069-1.98,0-3.201-1.441-3.201-3.069v-4.379h1.408v4.39c0,1.101.727,1.805,1.793,1.805,1.057,0,1.793-.704,1.793-1.805v-4.39h1.408v4.379Z" fill="#bcbcbc"/>
      <path d="M1016.147,106.633c0,.362-.264.648-.616.692-.22.033-.474-.032-.628-.23l-3.695-4.709v4.885h-1.408v-6.7c0-.385.318-.704.703-.704.221,0,.385.056.539.242l3.697,4.697v-4.862h1.408v6.689Z" fill="#bcbcbc"/>
      <path d="M1021.13,101.176v6.095h-1.408v-6.095h-2.432v-1.232h6.271v1.232h-2.431Z" fill="#bcbcbc"/>
    </g>
    <g>
      <path d="M1083.612,107.271l-1.617-2.762h-2.023v2.762h-1.408v-6.623c0-.385.318-.704.703-.704h3.257c1.397,0,2.365,1.023,2.365,2.288,0,.936-.562,1.738-1.419,2.08l1.749,2.959h-1.606ZM1083.458,102.21c0-.693-.561-1.057-1.199-1.057h-2.287v2.146h2.287c.639,0,1.199-.385,1.199-1.089Z" fill="#bcbcbc"/>
      <path d="M1091.676,107.271l-.638-1.64h-2.839l-.638,1.64h-1.441l2.915-7.008c.11-.253.341-.396.583-.396.254,0,.484.144.594.396l2.904,7.008h-1.44ZM1089.618,101.935l-1.001,2.586h2.013l-1.012-2.586Z" fill="#bcbcbc"/>
      <path d="M1096.779,101.176v6.095h-1.408v-6.095h-2.432v-1.232h6.271v1.232h-2.431Z" fill="#bcbcbc"/>
      <path d="M1101.057,107.271c-.385,0-.703-.319-.703-.704v-5.919c0-.385.318-.704.703-.704h4.555v1.21h-3.85v1.761h2.904c.341,0,.615.274.615.604,0,.342-.274.605-.615.605h-2.904v1.937h3.861v1.21h-4.566Z" fill="#bcbcbc"/>
    </g>
    <g>
      <path d="M222.174,449.635c-.63,0-1.152-.522-1.152-1.152v-9.687c0-.631.522-1.152,1.152-1.152h7.454v1.98h-6.302v2.881h4.753c.559,0,1.009.45,1.009.99,0,.558-.45.99-1.009.99h-4.753v3.169h6.32v1.98h-7.472Z" fill="#bcbcbc"/>
      <path d="M242.768,448.591c0,.594-.432,1.062-1.008,1.134-.36.055-.774-.054-1.026-.378l-6.05-7.706v7.994h-2.305v-10.965c0-.631.522-1.152,1.152-1.152.36,0,.63.09.882.396l6.05,7.688v-7.958h2.305v10.947Z" fill="#bcbcbc"/>
      <path d="M251.208,449.095c-.162.414-.558.648-.99.648s-.811-.234-.972-.648l-4.7-11.451h2.287l3.385,8.39,3.385-8.39h2.269l-4.664,11.451Z" fill="#bcbcbc"/>
      <path d="M258.533,449.635c-.63,0-1.152-.522-1.152-1.152v-9.687c0-.631.522-1.152,1.152-1.152h7.454v1.98h-6.302v2.881h4.753c.559,0,1.009.45,1.009.99,0,.558-.45.99-1.009.99h-4.753v3.169h6.32v1.98h-7.472Z" fill="#bcbcbc"/>
      <path d="M269.873,449.635c-.612,0-1.135-.522-1.135-1.152v-10.839h2.305v9.992h6.338v1.999h-7.508Z" fill="#bcbcbc"/>
      <path d="M290.45,443.658c0,3.438-2.521,6.176-6.14,6.176s-6.14-2.737-6.14-6.176,2.521-6.194,6.14-6.194,6.14,2.755,6.14,6.194ZM288.163,443.658c0-2.395-1.512-4.142-3.853-4.142s-3.835,1.747-3.835,4.142,1.494,4.123,3.835,4.123,3.853-1.729,3.853-4.123Z" fill="#bcbcbc"/>
      <path d="M302.906,441.46c0,2.071-1.566,3.854-3.943,3.854h-3.799v4.321h-2.305v-10.839c0-.631.522-1.152,1.152-1.152h4.952c2.377,0,3.943,1.746,3.943,3.816ZM300.583,441.46c0-1.152-.9-1.836-1.945-1.836h-3.475v3.709h3.475c1.044,0,1.945-.738,1.945-1.873Z" fill="#bcbcbc"/>
      <path d="M306.016,449.635c-.63,0-1.152-.522-1.152-1.152v-9.687c0-.631.522-1.152,1.152-1.152h7.455v1.98h-6.302v2.881h4.754c.558,0,1.008.45,1.008.99,0,.558-.45.99-1.008.99h-4.754v3.169h6.32v1.98h-7.473Z" fill="#bcbcbc"/>
    </g>
    <g>
      <path d="M46.756,459.678c-.162.414-.558.648-.99.648s-.811-.234-.972-.648l-4.7-11.451h2.287l3.385,8.39,3.385-8.39h2.269l-4.664,11.451Z" fill="#bcbcbc"/>
      <path d="M53.288,460.218v-11.991h2.305v11.991h-2.305Z" fill="#bcbcbc"/>
      <path d="M59.498,460.218c-.576,0-1.081-.486-1.081-1.062,0-.234.09-.468.234-.666l6.086-8.265h-6.05v-1.998h8.156c.486,0,1.062.396,1.062,1.062,0,.234-.09.469-.234.667l-6.086,8.264h6.464v1.999h-8.553Z" fill="#bcbcbc"/>
    </g>
    <g>
      <path d="M120.842,460.218c-.63,0-1.152-.522-1.152-1.152v-9.687c0-.631.522-1.152,1.152-1.152h7.454v1.98h-6.302v2.881h4.753c.559,0,1.009.45,1.009.99,0,.558-.45.99-1.009.99h-4.753v3.169h6.32v1.98h-7.472Z" fill="#bcbcbc"/>
      <path d="M141.364,454.222c0,3.512-2.827,5.996-7.544,5.996h-1.621c-.63,0-1.152-.522-1.152-1.152v-9.687c0-.631.522-1.152,1.152-1.152h1.621c4.735,0,7.544,2.484,7.544,5.995ZM139.041,454.222c0-2.719-2.305-3.943-4.826-3.943h-.864v7.887h.864c2.521,0,4.826-1.225,4.826-3.943Z" fill="#bcbcbc"/>
      <path d="M143.773,460.218v-11.991h2.305v11.991h-2.305Z" fill="#bcbcbc"/>
      <path d="M154.322,450.243v9.975h-2.305v-9.975h-3.979v-2.017h10.263v2.017h-3.979Z" fill="#bcbcbc"/>
    </g>
    <g>
      <path d="M125.635,50.878c0,1.4-.45,1.9-1.85,1.9l-6.55.05c-1.4,0-1.85-.45-1.8-1.95l.1-4.4h-13.951l.05,4.4c0,1.45-.45,1.95-1.85,1.95h-6.45c-1.4,0-1.9-.45-1.9-1.85l.05-18.601c0-1.4.3-2.15,1.3-3.2l7.101-7.45c1-1.05,1.8-1.35,3.2-1.35h11.051c1.4,0,2.2.3,3.2,1.35l7,7.3c1,1.05,1.3,1.85,1.3,3.25v18.602ZM111.384,29.876h-5.65l-4.15,4v3.9h13.951l.1-3.8-4.25-4.1Z"/>
      <path d="M137.582,52.778c-1.4,0-1.9-.5-1.9-1.9v-28.202c0-1.4.5-1.9,1.9-1.9h24.301c1.4,0,2.2.3,3.2,1.3l5.9,5.95c1,1,1.3,1.8,1.3,3.2v11.151c0,1.4-.35,2.25-1.35,3.25l-5.8,5.8c-1,1-1.85,1.35-3.25,1.35h-24.301ZM145.983,43.227h12.75l2.4-2.45v-7.9l-2.5-2.55h-12.651v12.9Z"/>
      <path d="M183.782,52.778c-1.4,0-1.9-.5-1.9-1.9v-28.202c0-1.4.5-1.9,1.9-1.9h24.302c1.4,0,2.2.3,3.2,1.3l5.9,5.95c1,1,1.3,1.8,1.3,3.2v11.151c0,1.4-.35,2.25-1.35,3.25l-5.8,5.8c-1,1-1.85,1.35-3.25,1.35h-24.302ZM192.182,43.227h12.75l2.4-2.45v-7.9l-2.5-2.55h-12.651v12.9Z"/>
      <path d="M228.081,22.626c0-1.4.5-1.9,1.9-1.9h6.5c1.4,0,1.9.45,1.9,1.9v28.302c0,1.4-.5,1.9-1.9,1.9h-6.5c-1.4,0-1.9-.5-1.9-1.9v-28.302Z"/>
      <path d="M270.583,22.576c0-1.4.5-1.85,1.9-1.85h6.601c1.4,0,1.9.45,1.9,1.85l-.05,15.501c0,1.4-.3,2.15-1.3,3.15l-13.601,13.401c-1,1-1.65,1-2.7-.05l-13.551-13.301c-1.05-1.05-1.4-1.8-1.4-3.2l-.05-15.501c0-1.4.5-1.85,1.9-1.85h6.601c1.4,0,1.9.45,1.9,1.85l-.05,13.801,6,6.3,6-6.25-.1-13.851Z"/>
      <path d="M326.834,27.876c1,.95,1.3,1.75,1.3,3.15l.05,11.451c0,1.4-.35,2.15-1.4,3.2l-6.201,6.101c-1.05,1.05-1.9,1.35-3.3,1.35h-16.701c-1.4,0-2.25-.3-3.3-1.35l-6.1-6c-1.05-1.05-1.4-1.85-1.4-3.25v-11.351c0-1.4.35-2.2,1.4-3.25l6.3-6.2c1-1,1.8-1.3,3.2-1.3h16.701c1.4,0,2.2.3,3.2,1.3l6.25,6.15ZM314.583,29.976h-11.201l-2.851,2.8v7.95l2.9,2.85h11.25l2.8-2.75.05-8.05-2.95-2.8Z"/>
      <path d="M334.882,27.076c-1.05-1-1.1-1.65-.1-2.65l4.9-4.951c1-1,1.6-1,2.6.05l9.801,10.301,9.8-10.301c1-1.05,1.601-1.05,2.601-.05l4.75,4.8c1,1,.95,1.6-.1,2.65l-9.75,9.551,10.201,10.101c1,1,1,1.6,0,2.6l-4.9,4.85c-1,1-1.6.95-2.6-.1l-9.951-10.5-10.05,10.551c-1,1.05-1.6,1.05-2.601.05l-4.7-4.75c-1-1-1-1.6,0-2.601l10.051-9.9-9.951-9.701Z"/>
    </g>
    <g>
      <path d="M123.513,48.878c0,1.4-.45,1.9-1.85,1.9l-6.55.05c-1.4,0-1.85-.45-1.8-1.95l.1-4.4h-13.951l.05,4.4c0,1.45-.45,1.95-1.85,1.95h-6.45c-1.4,0-1.9-.45-1.9-1.85l.05-18.601c0-1.4.3-2.15,1.3-3.2l7.101-7.45c1-1.05,1.8-1.35,3.2-1.35h11.051c1.4,0,2.2.3,3.2,1.35l7,7.3c1,1.05,1.3,1.85,1.3,3.25v18.602ZM109.262,27.876h-5.65l-4.15,4v3.9h13.951l.1-3.8-4.25-4.1Z" fill="#bcbcbc"/>
      <path d="M135.46,50.778c-1.4,0-1.9-.5-1.9-1.9v-28.202c0-1.4.5-1.9,1.9-1.9h24.301c1.4,0,2.2.3,3.2,1.3l5.9,5.95c1,1,1.3,1.8,1.3,3.2v11.151c0,1.4-.35,2.25-1.35,3.25l-5.8,5.8c-1,1-1.85,1.35-3.25,1.35h-24.301ZM143.861,41.227h12.75l2.4-2.45v-7.9l-2.5-2.55h-12.651v12.9Z" fill="#bcbcbc"/>
      <path d="M181.66,50.778c-1.4,0-1.9-.5-1.9-1.9v-28.202c0-1.4.5-1.9,1.9-1.9h24.302c1.4,0,2.2.3,3.2,1.3l5.9,5.95c1,1,1.3,1.8,1.3,3.2v11.151c0,1.4-.35,2.25-1.35,3.25l-5.8,5.8c-1,1-1.85,1.35-3.25,1.35h-24.302ZM190.06,41.227h12.75l2.4-2.45v-7.9l-2.5-2.55h-12.651v12.9Z" fill="#bcbcbc"/>
      <path d="M225.959,20.626c0-1.4.5-1.9,1.9-1.9h6.5c1.4,0,1.9.45,1.9,1.9v28.302c0,1.4-.5,1.9-1.9,1.9h-6.5c-1.4,0-1.9-.5-1.9-1.9v-28.302Z" fill="#bcbcbc"/>
      <path d="M268.461,20.576c0-1.4.5-1.85,1.9-1.85h6.601c1.4,0,1.9.45,1.9,1.85l-.05,15.501c0,1.4-.3,2.15-1.3,3.15l-13.601,13.401c-1,1-1.65,1-2.7-.05l-13.551-13.301c-1.05-1.05-1.4-1.8-1.4-3.2l-.05-15.501c0-1.4.5-1.85,1.9-1.85h6.601c1.4,0,1.9.45,1.9,1.85l-.05,13.801,6,6.3,6-6.25-.1-13.851Z" fill="#bcbcbc"/>
      <path d="M324.712,25.876c1,.95,1.3,1.75,1.3,3.15l.05,11.451c0,1.4-.35,2.15-1.4,3.2l-6.201,6.101c-1.05,1.05-1.9,1.35-3.3,1.35h-16.701c-1.4,0-2.25-.3-3.3-1.35l-6.1-6c-1.05-1.05-1.4-1.85-1.4-3.25v-11.351c0-1.4.35-2.2,1.4-3.25l6.3-6.2c1-1,1.8-1.3,3.2-1.3h16.701c1.4,0,2.2.3,3.2,1.3l6.25,6.15ZM312.461,27.976h-11.201l-2.851,2.8v7.95l2.9,2.85h11.25l2.8-2.75.05-8.05-2.95-2.8Z" fill="#bcbcbc"/>
      <path d="M332.76,25.076c-1.05-1-1.1-1.65-.1-2.65l4.9-4.951c1-1,1.6-1,2.6.05l9.801,10.301,9.8-10.301c1-1.05,1.601-1.05,2.601-.05l4.75,4.8c1,1,.95,1.6-.1,2.65l-9.75,9.551,10.201,10.101c1,1,1,1.6,0,2.6l-4.9,4.85c-1,1-1.6.95-2.6-.1l-9.951-10.5-10.05,10.551c-1,1.05-1.6,1.05-2.601.05l-4.7-4.75c-1-1-1-1.6,0-2.601l10.051-9.9-9.951-9.701Z" fill="#bcbcbc"/>
    </g>
    <g>
      <polygon points="214.501 443.5 216 445 193 445 194.499 443.5 214.501 443.5" fill="#606072"/>
      <polygon points="194.499 443.5 193 442 216 442 214.501 443.5 194.499 443.5" fill="#131316"/>
      <polygon points="194.5 443.5 193 445 193 442 194.5 443.5" fill="#3f3f49"/>
      <polygon points="216 442 216 445 214.5 443.5 216 442" fill="#4f4f5b"/>
    </g>
    <g>
      <polygon points="389.501 443.5 391 445 318.486 445 319.984 443.5 389.501 443.5" fill="#606072"/>
      <polygon points="319.984 443.5 318.486 442 391 442 389.501 443.5 319.984 443.5" fill="#131316"/>
      <polygon points="319.986 443.5 318.486 445 318.486 442 319.986 443.5" fill="#3f3f49"/>
      <polygon points="391 442 391 445 389.5 443.5 391 442" fill="#4f4f5b"/>
    </g>
    <g>
      <path d="M445.068,441.46c0,2.071-1.566,3.854-3.943,3.854h-3.799v4.321h-2.305v-10.839c0-.631.522-1.152,1.152-1.152h4.951c2.377,0,3.943,1.746,3.943,3.816ZM442.745,441.46c0-1.152-.9-1.836-1.945-1.836h-3.475v3.709h3.475c1.044,0,1.945-.738,1.945-1.873Z" fill="#bcbcbc"/>
      <path d="M447.117,449.635v-11.991h2.305v11.991h-2.305Z" fill="#bcbcbc"/>
      <path d="M457.666,439.66v9.975h-2.305v-9.975h-3.979v-2.017h10.263v2.017h-3.979Z" fill="#bcbcbc"/>
      <path d="M472.067,439.823c-.774-.217-1.783-.324-2.701-.324-2.881,0-4.591,1.782-4.591,4.141,0,2.377,1.71,4.159,4.591,4.159.918,0,1.854-.144,2.701-.396l.468,1.854c-.918.378-2.215.576-3.421.576-3.907,0-6.68-2.593-6.68-6.194s2.719-6.176,6.68-6.176c1.17,0,2.359.126,3.457.486l-.504,1.873Z" fill="#bcbcbc"/>
      <path d="M483.281,449.635v-5.06h-5.726v5.06h-2.305v-11.991h2.305v4.879h5.726v-4.879h2.305v11.991h-2.305Z" fill="#bcbcbc"/>
    </g>
    <g>
      <polygon points="428.501 443.5 430 445 407 445 408.499 443.5 428.501 443.5" fill="#606072"/>
      <polygon points="408.499 443.5 407 442 430 442 428.501 443.5 408.499 443.5" fill="#131316"/>
      <polygon points="408.5 443.5 407 445 407 442 408.5 443.5" fill="#3f3f49"/>
      <polygon points="430 442 430 445 428.5 443.5 430 442" fill="#4f4f5b"/>
    </g>
    <g>
      <polygon points="713.501 443.5 715 445 490.582 445 492.081 443.5 713.501 443.5" fill="#606072"/>
      <polygon points="492.081 443.5 490.582 442 715 442 713.501 443.5 492.081 443.5" fill="#131316"/>
      <polygon points="492.082 443.5 490.582 445 490.582 442 492.082 443.5" fill="#3f3f49"/>
      <polygon points="715 442 715 445 713.5 443.5 715 442" fill="#4f4f5b"/>
    </g>
    <g>
      <path d="M769.032,446.088c0,2.034-1.729,3.547-4.016,3.547h-4.843c-.631,0-1.152-.522-1.152-1.152v-9.687c0-.631.521-1.152,1.152-1.152h3.835c2.557,0,4.249,1.152,4.249,3.169,0,.936-.504,1.818-1.314,2.412,1.278.504,2.089,1.585,2.089,2.863ZM765.899,440.992c0-.882-.738-1.477-1.765-1.477h-2.809v3.115h2.719c1.224,0,1.854-.721,1.854-1.639ZM766.655,446.088c0-.954-.702-1.603-1.782-1.603h-3.547v3.241h3.547c1.044,0,1.782-.648,1.782-1.639Z" fill="#bcbcbc"/>
      <path d="M772.756,449.635c-.612,0-1.135-.522-1.135-1.152v-10.839h2.305v9.992h6.338v1.999h-7.508Z" fill="#bcbcbc"/>
      <path d="M782.403,449.635v-11.991h2.305v11.991h-2.305Z" fill="#bcbcbc"/>
      <path d="M798.156,441.46c0,2.071-1.566,3.854-3.943,3.854h-3.799v4.321h-2.305v-10.839c0-.631.521-1.152,1.152-1.152h4.951c2.377,0,3.943,1.746,3.943,3.816ZM795.833,441.46c0-1.152-.9-1.836-1.944-1.836h-3.475v3.709h3.475c1.044,0,1.944-.738,1.944-1.873Z" fill="#bcbcbc"/>
      <path d="M814.643,447.222c-.918,1.513-2.755,2.611-5.042,2.611-3.528,0-6.428-2.575-6.428-6.194,0-3.799,2.773-6.176,6.608-6.176,1.639,0,2.917.288,4.033.721l-.486,1.854c-.973-.343-2.143-.559-3.277-.559-2.719,0-4.501,1.621-4.501,4.159,0,2.395,1.62,4.088,4.051,4.088,1.225,0,2.179-.379,2.773-1.062v-2.936h2.269v3.493Z" fill="#bcbcbc"/>
      <path d="M827.531,444.81c0,2.665-2.017,5.023-5.239,5.023-3.241,0-5.239-2.358-5.239-5.023v-7.166h2.305v7.184c0,1.801,1.188,2.953,2.935,2.953,1.729,0,2.935-1.152,2.935-2.953v-7.184h2.305v7.166Z" fill="#bcbcbc"/>
      <path d="M837.682,449.635l-1.044-2.683h-4.646l-1.045,2.683h-2.358l4.771-11.47c.18-.414.559-.647.954-.647.414,0,.792.233.973.647l4.753,11.47h-2.358ZM834.315,440.903l-1.639,4.231h3.295l-1.656-4.231Z" fill="#bcbcbc"/>
      <path d="M850.175,449.635l-2.646-4.52h-3.313v4.52h-2.305v-10.839c0-.631.522-1.152,1.152-1.152h5.33c2.286,0,3.871,1.674,3.871,3.745,0,1.53-.919,2.845-2.323,3.402l2.863,4.844h-2.629ZM849.923,441.353c0-1.135-.919-1.729-1.963-1.729h-3.745v3.511h3.745c1.044,0,1.963-.63,1.963-1.782Z" fill="#bcbcbc"/>
      <path d="M865.764,443.639c0,3.512-2.827,5.996-7.545,5.996h-1.62c-.63,0-1.152-.522-1.152-1.152v-9.687c0-.631.522-1.152,1.152-1.152h1.62c4.735,0,7.545,2.484,7.545,5.995ZM863.44,443.639c0-2.719-2.305-3.943-4.825-3.943h-.864v7.887h.864c2.521,0,4.825-1.225,4.825-3.943Z" fill="#bcbcbc"/>
    </g>
    <g>
      <polygon points="752.501 443.5 754 445 731 445 732.499 443.5 752.501 443.5" fill="#606072"/>
      <polygon points="732.499 443.5 731 442 754 442 752.501 443.5 732.499 443.5" fill="#131316"/>
      <polygon points="732.5 443.5 731 445 731 442 732.5 443.5" fill="#3f3f49"/>
      <polygon points="754 442 754 445 752.5 443.5 754 442" fill="#4f4f5b"/>
    </g>
    <g>
      <polygon points="895.501 443.5 897 445 870.76 445 872.258 443.5 895.501 443.5" fill="#606072"/>
      <polygon points="872.258 443.5 870.76 442 897 442 895.501 443.5 872.258 443.5" fill="#131316"/>
      <polygon points="872.26 443.5 870.76 445 870.76 442 872.26 443.5" fill="#3f3f49"/>
      <polygon points="897 442 897 445 895.5 443.5 897 442" fill="#4f4f5b"/>
    </g>
    <g>
      <path d="M952.4,305.658c0,3.438-2.521,6.176-6.14,6.176s-6.14-2.737-6.14-6.176,2.521-6.194,6.14-6.194,6.14,2.755,6.14,6.194ZM950.113,305.658c0-2.395-1.512-4.142-3.853-4.142s-3.835,1.747-3.835,4.142,1.494,4.123,3.835,4.123,3.853-1.729,3.853-4.123Z" fill="#bcbcbc"/>
      <path d="M965.107,306.81c0,2.665-2.017,5.023-5.239,5.023-3.241,0-5.239-2.358-5.239-5.023v-7.166h2.305v7.184c0,1.801,1.188,2.953,2.935,2.953,1.729,0,2.935-1.152,2.935-2.953v-7.184h2.305v7.166Z" fill="#bcbcbc"/>
      <path d="M973.08,301.66v9.975h-2.305v-9.975h-3.979v-2.017h10.263v2.017h-3.979Z" fill="#bcbcbc"/>
      <path d="M988.975,303.46c0,2.071-1.566,3.854-3.943,3.854h-3.799v4.321h-2.305v-10.839c0-.631.522-1.152,1.152-1.152h4.951c2.377,0,3.943,1.746,3.943,3.816ZM986.653,303.46c0-1.152-.9-1.836-1.945-1.836h-3.475v3.709h3.475c1.045,0,1.945-.738,1.945-1.873Z" fill="#bcbcbc"/>
      <path d="M1001.233,306.81c0,2.665-2.017,5.023-5.239,5.023-3.241,0-5.239-2.358-5.239-5.023v-7.166h2.305v7.184c0,1.801,1.188,2.953,2.935,2.953,1.729,0,2.935-1.152,2.935-2.953v-7.184h2.305v7.166Z" fill="#bcbcbc"/>
      <path d="M1009.206,301.66v9.975h-2.305v-9.975h-3.979v-2.017h10.263v2.017h-3.979Z" fill="#bcbcbc"/>
    </g>
    <g>
      <polygon points="934.501 305.5 936 307 913 307 914.499 305.5 934.501 305.5" fill="#606072"/>
      <polygon points="914.499 305.5 913 304 936 304 934.501 305.5 914.499 305.5" fill="#131316"/>
      <polygon points="914.5 305.5 913 307 913 304 914.5 305.5" fill="#3f3f49"/>
      <polygon points="936 304 936 307 934.5 305.5 936 304" fill="#4f4f5b"/>
    </g>
    <g>
      <polygon points="1137.501 305.5 1139 307 1018.181 307 1019.68 305.5 1137.501 305.5" fill="#606072"/>
      <polygon points="1019.68 305.5 1018.181 304 1139 304 1137.501 305.5 1019.68 305.5" fill="#131316"/>
      <polygon points="1019.681 305.5 1018.181 307 1018.181 304 1019.681 305.5" fill="#3f3f49"/>
      <polygon points="1139 304 1139 307 1137.5 305.5 1139 304" fill="#4f4f5b"/>
    </g>
    <g>
      <path d="M942.174,397.635c-.631,0-1.152-.522-1.152-1.152v-9.687c0-.631.521-1.152,1.152-1.152h7.454v1.98h-6.302v2.881h4.753c.559,0,1.009.45,1.009.99,0,.558-.45.99-1.009.99h-4.753v3.169h6.319v1.98h-7.472Z" fill="#bcbcbc"/>
      <path d="M954.683,387.624v2.881h4.934c.54,0,.99.45.99.99,0,.558-.45.99-.99.99h-4.934v5.149h-2.305v-10.839c0-.631.522-1.152,1.152-1.152h7.761v1.98h-6.608Z" fill="#bcbcbc"/>
      <path d="M965.916,387.624v2.881h4.933c.541,0,.99.45.99.99,0,.558-.449.99-.99.99h-4.933v5.149h-2.305v-10.839c0-.631.521-1.152,1.152-1.152h7.76v1.98h-6.607Z" fill="#bcbcbc"/>
      <path d="M975.995,397.635c-.63,0-1.152-.522-1.152-1.152v-9.687c0-.631.522-1.152,1.152-1.152h7.454v1.98h-6.302v2.881h4.754c.558,0,1.008.45,1.008.99,0,.558-.45.99-1.008.99h-4.754v3.169h6.32v1.98h-7.473Z" fill="#bcbcbc"/>
      <path d="M994.933,387.823c-.774-.217-1.783-.324-2.701-.324-2.881,0-4.591,1.782-4.591,4.141,0,2.377,1.71,4.159,4.591,4.159.918,0,1.854-.144,2.701-.396l.468,1.854c-.918.378-2.215.576-3.421.576-3.907,0-6.68-2.593-6.68-6.194s2.719-6.176,6.68-6.176c1.17,0,2.358.126,3.457.486l-.504,1.873Z" fill="#bcbcbc"/>
      <path d="M1003.14,387.66v9.975h-2.305v-9.975h-3.979v-2.017h10.263v2.017h-3.979Z" fill="#bcbcbc"/>
      <path d="M1017.883,394.376c0,2.232-2.034,3.457-4.879,3.457-1.585,0-3.224-.36-4.735-.937l.432-1.782c1.332.45,2.935.774,4.339.774,1.693,0,2.539-.522,2.539-1.333,0-.72-.937-1.152-3.421-2.286-2.358-1.062-3.511-1.945-3.511-3.674,0-2.16,1.458-3.133,4.717-3.133,1.314,0,3.205.288,4.268.595l-.342,1.854c-1.351-.271-2.773-.469-3.89-.469-1.854,0-2.448.307-2.448,1.045,0,.774.594,1.08,3.169,2.269,2.593,1.188,3.763,1.765,3.763,3.619Z" fill="#bcbcbc"/>
    </g>
    <g>
      <polygon points="934.501 391.5 936 393 913 393 914.499 391.5 934.501 391.5" fill="#606072"/>
      <polygon points="914.499 391.5 913 390 936 390 934.501 391.5 914.499 391.5" fill="#131316"/>
      <polygon points="914.5 391.5 913 393 913 390 914.5 391.5" fill="#3f3f49"/>
      <polygon points="936 390 936 393 934.5 391.5 936 390" fill="#4f4f5b"/>
    </g>
    <g>
      <polygon points="1137.501 391.5 1139 393 1022.88 393 1024.378 391.5 1137.501 391.5" fill="#606072"/>
      <polygon points="1024.378 391.5 1022.88 390 1139 390 1137.501 391.5 1024.378 391.5" fill="#131316"/>
      <polygon points="1024.38 391.5 1022.88 393 1022.88 390 1024.38 391.5" fill="#3f3f49"/>
      <polygon points="1139 390 1139 393 1137.5 391.5 1139 390" fill="#4f4f5b"/>
    </g>
    <g>
      <path d="M946.152,87.095c-.162.414-.558.648-.99.648s-.811-.234-.972-.648l-4.7-11.451h2.287l3.385,8.39,3.385-8.39h2.27l-4.664,11.451Z" fill="#bcbcbc"/>
      <path d="M958.807,87.635l-1.044-2.683h-4.646l-1.045,2.683h-2.358l4.771-11.47c.18-.414.559-.647.954-.647.414,0,.792.233.973.647l4.753,11.47h-2.358ZM955.44,78.903l-1.639,4.231h3.295l-1.656-4.231Z" fill="#bcbcbc"/>
      <path d="M971.299,87.635l-2.646-4.52h-3.312v4.52h-2.305v-10.839c0-.631.521-1.152,1.152-1.152h5.329c2.287,0,3.871,1.674,3.871,3.745,0,1.53-.918,2.845-2.322,3.402l2.862,4.844h-2.629ZM971.047,79.353c0-1.135-.918-1.729-1.962-1.729h-3.745v3.511h3.745c1.044,0,1.962-.63,1.962-1.782Z" fill="#bcbcbc"/>
      <path d="M976.661,87.635v-11.991h2.305v11.991h-2.305Z" fill="#bcbcbc"/>
      <path d="M990.018,87.635l-1.044-2.683h-4.646l-1.044,2.683h-2.358l4.771-11.47c.181-.414.559-.647.955-.647.414,0,.792.233.972.647l4.754,11.47h-2.359ZM986.652,78.903l-1.639,4.231h3.295l-1.656-4.231Z" fill="#bcbcbc"/>
      <path d="M998.37,77.66v9.975h-2.305v-9.975h-3.979v-2.017h10.263v2.017h-3.979Z" fill="#bcbcbc"/>
      <path d="M1004.308,87.635v-11.991h2.305v11.991h-2.305Z" fill="#bcbcbc"/>
      <path d="M1021.393,81.658c0,3.438-2.521,6.176-6.14,6.176s-6.14-2.737-6.14-6.176,2.521-6.194,6.14-6.194,6.14,2.755,6.14,6.194ZM1019.106,81.658c0-2.395-1.512-4.142-3.853-4.142s-3.835,1.747-3.835,4.142,1.494,4.123,3.835,4.123,3.853-1.729,3.853-4.123Z" fill="#bcbcbc"/>
      <path d="M1034.191,86.591c0,.594-.433,1.062-1.009,1.134-.359.055-.773-.054-1.025-.378l-6.05-7.706v7.994h-2.305v-10.965c0-.631.521-1.152,1.152-1.152.359,0,.63.09.882.396l6.05,7.688v-7.958h2.305v10.947Z" fill="#bcbcbc"/>
    </g>
    <g>
      <polygon points="934.501 81.5 936 83 913 83 914.499 81.5 934.501 81.5" fill="#606072"/>
      <polygon points="914.499 81.5 913 80 936 80 934.501 81.5 914.499 81.5" fill="#131316"/>
      <polygon points="914.5 81.5 913 83 913 80 914.5 81.5" fill="#3f3f49"/>
      <polygon points="936 80 936 83 934.5 81.5 936 80" fill="#4f4f5b"/>
    </g>
    <g>
      <polygon points="1137.501 81.5 1139 83 1039.188 83 1040.686 81.5 1137.501 81.5" fill="#606072"/>
      <polygon points="1040.686 81.5 1039.188 80 1139 80 1137.501 81.5 1040.686 81.5" fill="#131316"/>
      <polygon points="1040.688 81.5 1039.188 83 1039.188 80 1040.688 81.5" fill="#3f3f49"/>
      <polygon points="1139 80 1139 83 1137.5 81.5 1139 80" fill="#4f4f5b"/>
    </g>
    <g>
      <polygon points="1133 113 1134 114 918 114 919 113 1133 113" fill="#606072"/>
      <polygon points="919 113 918 112 1134 112 1133 113 919 113" fill="#131316"/>
      <polygon points="919 113 918 114 918 112 919 113" fill="#3f3f49"/>
      <polygon points="1134 112 1134 114 1133 113 1134 112" fill="#4f4f5b"/>
    </g>
    <g>
      <polygon points="1133 167 1134 168 918 168 919 167 1133 167" fill="#606072"/>
      <polygon points="919 167 918 166 1134 166 1133 167 919 167" fill="#131316"/>
      <polygon points="919 167 918 168 918 166 919 167" fill="#3f3f49"/>
      <polygon points="1134 166 1134 168 1133 167 1134 166" fill="#4f4f5b"/>
    </g>
    <g>
      <polygon points="1133 221 1134 222 918 222 919 221 1133 221" fill="#606072"/>
      <polygon points="919 221 918 220 1134 220 1133 221 919 221" fill="#131316"/>
      <polygon points="919 221 918 222 918 220 919 221" fill="#3f3f49"/>
      <polygon points="1134 220 1134 222 1133 221 1134 220" fill="#4f4f5b"/>
    </g>
    <g>
      <polygon points="1133 277 1134 278 918 278 919 277 1133 277" fill="#606072"/>
      <polygon points="919 277 918 276 1134 276 1133 277 919 277" fill="#131316"/>
      <polygon points="919 277 918 278 918 276 919 277" fill="#3f3f49"/>
      <polygon points="1134 276 1134 278 1133 277 1134 276" fill="#4f4f5b"/>
    </g>
    <g>
      <path d="M925.151,192.815c0,1.266-.957,2.354-2.409,2.354h-2.321v2.641h-1.408v-6.623c0-.385.318-.704.704-.704h3.025c1.452,0,2.409,1.067,2.409,2.332ZM923.732,192.815c0-.704-.551-1.122-1.188-1.122h-2.123v2.267h2.123c.638,0,1.188-.451,1.188-1.145Z" fill="#bcbcbc"/>
      <path d="M930.365,197.81l-.639-1.64h-2.838l-.639,1.64h-1.441l2.916-7.008c.109-.253.341-.396.583-.396.253,0,.484.144.594.396l2.904,7.008h-1.44ZM928.307,192.474l-1.001,2.586h2.013l-1.012-2.586Z" fill="#bcbcbc"/>
      <path d="M939.297,197.173c0,.362-.264.648-.615.692-.221.033-.474-.032-.628-.23l-3.696-4.709v4.885h-1.408v-6.7c0-.385.319-.704.704-.704.221,0,.385.056.539.242l3.696,4.697v-4.862h1.408v6.689Z" fill="#bcbcbc"/>
    </g>
    <g>
      <path d="M925.151,246.815c0,1.266-.957,2.354-2.409,2.354h-2.321v2.641h-1.408v-6.623c0-.385.318-.704.704-.704h3.025c1.452,0,2.409,1.067,2.409,2.332ZM923.732,246.815c0-.704-.551-1.122-1.188-1.122h-2.123v2.267h2.123c.638,0,1.188-.451,1.188-1.145Z" fill="#bcbcbc"/>
      <path d="M926.404,251.81v-7.327h1.408v7.327h-1.408Z" fill="#bcbcbc"/>
      <path d="M932.85,245.716v6.095h-1.408v-6.095h-2.432v-1.232h6.271v1.232h-2.432Z" fill="#bcbcbc"/>
      <path d="M941.651,245.814c-.474-.132-1.09-.198-1.65-.198-1.761,0-2.806,1.09-2.806,2.531,0,1.452,1.045,2.541,2.806,2.541.561,0,1.133-.088,1.65-.242l.285,1.133c-.561.231-1.353.353-2.09.353-2.388,0-4.082-1.584-4.082-3.784s1.662-3.774,4.082-3.774c.715,0,1.441.077,2.112.298l-.308,1.144Z" fill="#bcbcbc"/>
      <path d="M948.504,251.81v-3.092h-3.499v3.092h-1.408v-7.327h1.408v2.981h3.499v-2.981h1.408v7.327h-1.408Z" fill="#bcbcbc"/>
    </g>
  </g>
</svg>