<?xml version="1.0" encoding="UTF-8"?>
<svg xmlns="http://www.w3.org/2000/svg" width="1090" height="648" viewBox="0 0 1090 648">
  <g id="background">
    <rect width="1090" height="648"/>
  </g>
  <g id="panels">
    <g>
      <rect fill="#25252d" x="848" y="378" width="236" height="132"/>
      <polygon fill="#606072" points="848 378 846 376 1086 376 1084 378 848 378"/>
      <polygon fill="#131316" points="1084 510 1086 512 846 512 848 510 1084 510"/>
      <polygon fill="#3f3f49" points="1084 378 1086 376 1086 512 1084 510 1084 378"/>
      <polygon fill="#4f4f5b" points="848 510 846 512 846 376 848 378 848 510"/>
    </g>
    <g>
      <rect fill="#25252d" x="848" y="292" width="236" height="80"/>
      <polygon fill="#606072" points="848 292 846 290 1086 290 1084 292 848 292"/>
      <polygon fill="#131316" points="1084 372 1086 374 846 374 848 372 1084 372"/>
      <polygon fill="#3f3f49" points="1084 292 1086 290 1086 374 1084 372 1084 292"/>
      <polygon fill="#4f4f5b" points="848 372 846 374 846 290 848 292 848 372"/>
    </g>
    <g>
      <rect fill="#25252d" x="848" y="67.78" width="236" height="218"/>
      <polygon fill="#606072" points="848 67.78 846 65.78 1086 65.78 1084 67.78 848 67.78"/>
      <polygon fill="#131316" points="1084 285.78 1086 287.78 846 287.78 848 285.78 1084 285.78"/>
      <polygon fill="#3f3f49" points="1084 67.78 1086 65.78 1086 287.78 1084 285.78 1084 67.78"/>
      <polygon fill="#4f4f5b" points="848 285.78 846 287.78 846 65.78 848 67.78 848 285.78"/>
    </g>
    <g>
      <rect fill="#25252d" x="848" y="6" width="236" height="56"/>
      <polygon fill="#606072" points="848 6 846 4 1086 4 1084 6 848 6"/>
      <polygon fill="#131316" points="1084 62 1086 64 846 64 848 62 1084 62"/>
      <polygon fill="#3f3f49" points="1084 6 1086 4 1086 64 1084 62 1084 6"/>
      <polygon fill="#4f4f5b" points="848 62 846 64 846 4 848 6 848 62"/>
    </g>
    <g>
      <rect fill="#25252d" x="6" y="6" width="836" height="56"/>
      <polygon fill="#606072" points="6 6 4 4 844 4 842 6 6 6"/>
      <polygon fill="#131316" points="842 62 844 64 4 64 6 62 842 62"/>
      <polygon fill="#3f3f49" points="842 6 844 4 844 64 842 62 842 6"/>
      <polygon fill="#4f4f5b" points="6 62 4 64 4 4 6 6 6 62"/>
    </g>
    <g>
      <rect fill="#25252d" x="6" y="68" width="836" height="356"/>
      <polygon fill="#606072" points="6 68 4 66 844 66 842 68 6 68"/>
      <polygon fill="#131316" points="842 424 844 426 4 426 6 424 842 424"/>
      <polygon fill="#3f3f49" points="842 68 844 66 844 426 842 424 842 68"/>
      <polygon fill="#4f4f5b" points="6 424 4 426 4 66 6 68 6 424"/>
    </g>
    <g>
      <rect fill="#25252d" x="666" y="430" width="176" height="80"/>
      <polygon fill="#606072" points="666 430 664 428 844 428 842 430 666 430"/>
      <polygon fill="#131316" points="842 510 844 512 664 512 666 510 842 510"/>
      <polygon fill="#3f3f49" points="842 430 844 428 844 512 842 510 842 430"/>
      <polygon fill="#4f4f5b" points="666 510 664 512 664 428 666 430 666 510"/>
    </g>
    <g>
      <rect fill="#25252d" x="402" y="430" width="258" height="80"/>
      <polygon fill="#606072" points="402 430 400 428 662 428 660 430 402 430"/>
      <polygon fill="#131316" points="660 510 662 512 400 512 402 510 660 510"/>
      <polygon fill="#3f3f49" points="660 430 662 428 662 512 660 510 660 430"/>
      <polygon fill="#4f4f5b" points="402 510 400 512 400 428 402 430 402 510"/>
    </g>
    <g>
      <rect fill="#25252d" x="188" y="430" width="208" height="80"/>
      <polygon fill="#606072" points="188 430 186 428 398 428 396 430 188 430"/>
      <polygon fill="#131316" points="396 510 398 512 186 512 188 510 396 510"/>
      <polygon fill="#3f3f49" points="396 430 398 428 398 512 396 510 396 430"/>
      <polygon fill="#4f4f5b" points="188 510 186 512 186 428 188 430 188 510"/>
    </g>
    <g>
      <rect fill="#25252d" x="6" y="430" width="176" height="80"/>
      <polygon fill="#606072" points="6 430 4 428 184 428 182 430 6 430"/>
      <polygon fill="#131316" points="182 510 184 512 4 512 6 510 182 510"/>
      <polygon fill="#3f3f49" points="182 430 184 428 184 512 182 510 182 430"/>
      <polygon fill="#4f4f5b" points="6 510 4 512 4 428 6 430 6 510"/>
    </g>
    <g>
      <rect fill="#25252d" x="6" y="516" width="1078" height="126"/>
      <polygon fill="#606072" points="6 516 4 514 1086 514 1084 516 6 516"/>
      <polygon fill="#131316" points="1084 642 1086 644 4 644 6 642 1084 642"/>
      <polygon fill="#3f3f49" points="1084 516 1086 514 1086 644 1084 642 1084 516"/>
      <polygon fill="#4f4f5b" points="6 642 4 644 4 514 6 516 6 642"/>
    </g>
  </g>
  <g id="Layer_1" data-name="Layer 1">
    <g>
      <path fill="#bcbcbc" d="M859.7,143.81c-.37,0-.69-.32-.69-.7v-6.62h1.41v6.11h3.87v1.22h-4.59Z"/>
      <path fill="#bcbcbc" d="M866.25,143.81c-.38,0-.7-.32-.7-.7v-5.92c0-.38.32-.7.7-.7h4.55v1.21h-3.85v1.76h2.9c.34,0,.62.27.62.6s-.27.61-.62.61h-2.9v1.94h3.86v1.21h-4.57Z"/>
      <path fill="#bcbcbc" d="M875.62,143.48c-.1.25-.34.4-.61.4s-.5-.14-.59-.4l-2.87-7h1.4l2.07,5.13,2.07-5.13h1.39l-2.85,7Z"/>
      <path fill="#bcbcbc" d="M880.1,143.81c-.39,0-.7-.32-.7-.7v-5.92c0-.38.32-.7.7-.7h4.55v1.21h-3.85v1.76h2.9c.34,0,.62.27.62.6s-.28.61-.62.61h-2.9v1.94h3.86v1.21h-4.57Z"/>
      <path fill="#bcbcbc" d="M887.03,143.81c-.37,0-.69-.32-.69-.7v-6.62h1.41v6.11h3.87v1.22h-4.59Z"/>
    </g>
    <g>
      <path fill="#bcbcbc" d="M921.32,107.27l-.64-1.64h-2.84l-.64,1.64h-1.44l2.92-7.01c.11-.25.34-.4.58-.4s.48.14.59.4l2.9,7.01h-1.44ZM919.26,101.93l-1,2.59h2.01l-1.01-2.59Z"/>
      <path fill="#bcbcbc" d="M929.79,107.27v-4.63l-1.72,2.75c-.09.13-.26.3-.55.3s-.45-.18-.54-.31l-1.73-2.74v4.63h-1.35v-6.72c0-.37.28-.68.67-.68.25,0,.44.11.56.3l2.39,3.73,2.39-3.73c.12-.19.32-.3.57-.3.37,0,.66.3.66.67v6.73h-1.35Z"/>
      <path fill="#bcbcbc" d="M940.12,103.62c0,2.1-1.54,3.77-3.75,3.77s-3.75-1.67-3.75-3.77,1.54-3.79,3.75-3.79,3.75,1.68,3.75,3.79ZM938.72,103.62c0-1.46-.92-2.53-2.36-2.53s-2.34,1.07-2.34,2.53.91,2.52,2.34,2.52,2.36-1.06,2.36-2.52Z"/>
      <path fill="#bcbcbc" d="M947.89,104.32c0,1.63-1.23,3.07-3.2,3.07s-3.2-1.44-3.2-3.07v-4.38h1.41v4.39c0,1.1.73,1.8,1.79,1.8s1.79-.7,1.79-1.8v-4.39h1.41v4.38Z"/>
      <path fill="#bcbcbc" d="M956.15,106.63c0,.36-.26.65-.62.69-.22.03-.47-.03-.63-.23l-3.7-4.71v4.88h-1.41v-6.7c0-.38.32-.7.7-.7.22,0,.38.06.54.24l3.7,4.7v-4.86h1.41v6.69Z"/>
      <path fill="#bcbcbc" d="M961.13,101.18v6.09h-1.41v-6.09h-2.43v-1.23h6.27v1.23h-2.43Z"/>
    </g>
    <g>
      <path fill="#bcbcbc" d="M1023.61,107.27l-1.62-2.76h-2.02v2.76h-1.41v-6.62c0-.38.32-.7.7-.7h3.26c1.4,0,2.37,1.02,2.37,2.29,0,.94-.56,1.74-1.42,2.08l1.75,2.96h-1.61ZM1023.46,102.21c0-.69-.56-1.06-1.2-1.06h-2.29v2.15h2.29c.64,0,1.2-.38,1.2-1.09Z"/>
      <path fill="#bcbcbc" d="M1031.68,107.27l-.64-1.64h-2.84l-.64,1.64h-1.44l2.92-7.01c.11-.25.34-.4.58-.4s.48.14.59.4l2.9,7.01h-1.44ZM1029.62,101.93l-1,2.59h2.01l-1.01-2.59Z"/>
      <path fill="#bcbcbc" d="M1036.78,101.18v6.09h-1.41v-6.09h-2.43v-1.23h6.27v1.23h-2.43Z"/>
      <path fill="#bcbcbc" d="M1041.06,107.27c-.38,0-.7-.32-.7-.7v-5.92c0-.38.32-.7.7-.7h4.55v1.21h-3.85v1.76h2.9c.34,0,.62.27.62.6s-.27.61-.62.61h-2.9v1.94h3.86v1.21h-4.57Z"/>
    </g>
    <g>
      <path fill="#bcbcbc" d="M222.17,449.64c-.63,0-1.15-.52-1.15-1.15v-9.69c0-.63.52-1.15,1.15-1.15h7.45v1.98h-6.3v2.88h4.75c.56,0,1.01.45,1.01.99s-.45.99-1.01.99h-4.75v3.17h6.32v1.98h-7.47Z"/>
      <path fill="#bcbcbc" d="M242.77,448.59c0,.59-.43,1.06-1.01,1.13-.36.05-.77-.05-1.03-.38l-6.05-7.71v7.99h-2.3v-10.96c0-.63.52-1.15,1.15-1.15.36,0,.63.09.88.4l6.05,7.69v-7.96h2.3v10.95Z"/>
      <path fill="#bcbcbc" d="M251.21,449.1c-.16.41-.56.65-.99.65s-.81-.23-.97-.65l-4.7-11.45h2.29l3.39,8.39,3.38-8.39h2.27l-4.66,11.45Z"/>
      <path fill="#bcbcbc" d="M258.53,449.64c-.63,0-1.15-.52-1.15-1.15v-9.69c0-.63.52-1.15,1.15-1.15h7.45v1.98h-6.3v2.88h4.75c.56,0,1.01.45,1.01.99s-.45.99-1.01.99h-4.75v3.17h6.32v1.98h-7.47Z"/>
      <path fill="#bcbcbc" d="M269.87,449.64c-.61,0-1.13-.52-1.13-1.15v-10.84h2.3v9.99h6.34v2h-7.51Z"/>
      <path fill="#bcbcbc" d="M290.45,443.66c0,3.44-2.52,6.18-6.14,6.18s-6.14-2.74-6.14-6.18,2.52-6.19,6.14-6.19,6.14,2.75,6.14,6.19ZM288.16,443.66c0-2.39-1.51-4.14-3.85-4.14s-3.83,1.75-3.83,4.14,1.49,4.12,3.83,4.12,3.85-1.73,3.85-4.12Z"/>
      <path fill="#bcbcbc" d="M302.91,441.46c0,2.07-1.57,3.85-3.94,3.85h-3.8v4.32h-2.3v-10.84c0-.63.52-1.15,1.15-1.15h4.95c2.38,0,3.94,1.75,3.94,3.82ZM300.58,441.46c0-1.15-.9-1.84-1.94-1.84h-3.48v3.71h3.48c1.04,0,1.94-.74,1.94-1.87Z"/>
      <path fill="#bcbcbc" d="M306.02,449.64c-.63,0-1.15-.52-1.15-1.15v-9.69c0-.63.52-1.15,1.15-1.15h7.45v1.98h-6.3v2.88h4.75c.56,0,1.01.45,1.01.99s-.45.99-1.01.99h-4.75v3.17h6.32v1.98h-7.47Z"/>
    </g>
    <g>
      <path fill="#bcbcbc" d="M38.76,455.68c-.16.41-.56.65-.99.65s-.81-.23-.97-.65l-4.7-11.45h2.29l3.39,8.39,3.38-8.39h2.27l-4.66,11.45Z"/>
      <path fill="#bcbcbc" d="M45.29,456.22v-11.99h2.3v11.99h-2.3Z"/>
      <path fill="#bcbcbc" d="M51.5,456.22c-.58,0-1.08-.49-1.08-1.06,0-.23.09-.47.23-.67l6.09-8.26h-6.05v-2h8.16c.49,0,1.06.4,1.06,1.06,0,.23-.09.47-.23.67l-6.09,8.26h6.46v2h-8.55Z"/>
    </g>
    <g>
      <path fill="#bcbcbc" d="M118.84,456.22c-.63,0-1.15-.52-1.15-1.15v-9.69c0-.63.52-1.15,1.15-1.15h7.45v1.98h-6.3v2.88h4.75c.56,0,1.01.45,1.01.99s-.45.99-1.01.99h-4.75v3.17h6.32v1.98h-7.47Z"/>
      <path fill="#bcbcbc" d="M139.36,450.22c0,3.51-2.83,6-7.54,6h-1.62c-.63,0-1.15-.52-1.15-1.15v-9.69c0-.63.52-1.15,1.15-1.15h1.62c4.74,0,7.54,2.48,7.54,6ZM137.04,450.22c0-2.72-2.3-3.94-4.83-3.94h-.86v7.89h.86c2.52,0,4.83-1.22,4.83-3.94Z"/>
      <path fill="#bcbcbc" d="M141.77,456.22v-11.99h2.3v11.99h-2.3Z"/>
      <path fill="#bcbcbc" d="M152.32,446.24v9.97h-2.3v-9.97h-3.98v-2.02h10.26v2.02h-3.98Z"/>
    </g>
    <g>
      <path d="M165.63,48.88c0,1.4-.45,1.9-1.85,1.9l-6.55.05c-1.4,0-1.85-.45-1.8-1.95l.1-4.4h-13.95l.05,4.4c0,1.45-.45,1.95-1.85,1.95h-6.45c-1.4,0-1.9-.45-1.9-1.85l.05-18.6c0-1.4.3-2.15,1.3-3.2l7.1-7.45c1-1.05,1.8-1.35,3.2-1.35h11.05c1.4,0,2.2.3,3.2,1.35l7,7.3c1,1.05,1.3,1.85,1.3,3.25v18.6ZM151.38,27.88h-5.65l-4.15,4v3.9h13.95l.1-3.8-4.25-4.1Z"/>
      <path d="M177.58,50.78c-1.4,0-1.9-.5-1.9-1.9v-28.2c0-1.4.5-1.9,1.9-1.9h24.3c1.4,0,2.2.3,3.2,1.3l5.9,5.95c1,1,1.3,1.8,1.3,3.2v11.15c0,1.4-.35,2.25-1.35,3.25l-5.8,5.8c-1,1-1.85,1.35-3.25,1.35h-24.3ZM185.98,41.23h12.75l2.4-2.45v-7.9l-2.5-2.55h-12.65v12.9Z"/>
      <path d="M223.78,50.78c-1.4,0-1.9-.5-1.9-1.9v-28.2c0-1.4.5-1.9,1.9-1.9h24.3c1.4,0,2.2.3,3.2,1.3l5.9,5.95c1,1,1.3,1.8,1.3,3.2v11.15c0,1.4-.35,2.25-1.35,3.25l-5.8,5.8c-1,1-1.85,1.35-3.25,1.35h-24.3ZM232.18,41.23h12.75l2.4-2.45v-7.9l-2.5-2.55h-12.65v12.9Z"/>
      <path d="M268.08,20.63c0-1.4.5-1.9,1.9-1.9h6.5c1.4,0,1.9.45,1.9,1.9v28.3c0,1.4-.5,1.9-1.9,1.9h-6.5c-1.4,0-1.9-.5-1.9-1.9v-28.3Z"/>
      <path d="M310.58,20.58c0-1.4.5-1.85,1.9-1.85h6.6c1.4,0,1.9.45,1.9,1.85l-.05,15.5c0,1.4-.3,2.15-1.3,3.15l-13.6,13.4c-1,1-1.65,1-2.7-.05l-13.55-13.3c-1.05-1.05-1.4-1.8-1.4-3.2l-.05-15.5c0-1.4.5-1.85,1.9-1.85h6.6c1.4,0,1.9.45,1.9,1.85l-.05,13.8,6,6.3,6-6.25-.1-13.85Z"/>
      <path d="M366.83,25.88c1,.95,1.3,1.75,1.3,3.15l.05,11.45c0,1.4-.35,2.15-1.4,3.2l-6.2,6.1c-1.05,1.05-1.9,1.35-3.3,1.35h-16.7c-1.4,0-2.25-.3-3.3-1.35l-6.1-6c-1.05-1.05-1.4-1.85-1.4-3.25v-11.35c0-1.4.35-2.2,1.4-3.25l6.3-6.2c1-1,1.8-1.3,3.2-1.3h16.7c1.4,0,2.2.3,3.2,1.3l6.25,6.15ZM354.58,27.98h-11.2l-2.85,2.8v7.95l2.9,2.85h11.25l2.8-2.75.05-8.05-2.95-2.8Z"/>
      <path d="M374.88,25.08c-1.05-1-1.1-1.65-.1-2.65l4.9-4.95c1-1,1.6-1,2.6.05l9.8,10.3,9.8-10.3c1-1.05,1.6-1.05,2.6-.05l4.75,4.8c1,1,.95,1.6-.1,2.65l-9.75,9.55,10.2,10.1c1,1,1,1.6,0,2.6l-4.9,4.85c-1,1-1.6.95-2.6-.1l-9.95-10.5-10.05,10.55c-1,1.05-1.6,1.05-2.6.05l-4.7-4.75c-1-1-1-1.6,0-2.6l10.05-9.9-9.95-9.7Z"/>
    </g>
    <g>
      <path fill="#bcbcbc" d="M163.51,46.88c0,1.4-.45,1.9-1.85,1.9l-6.55.05c-1.4,0-1.85-.45-1.8-1.95l.1-4.4h-13.95l.05,4.4c0,1.45-.45,1.95-1.85,1.95h-6.45c-1.4,0-1.9-.45-1.9-1.85l.05-18.6c0-1.4.3-2.15,1.3-3.2l7.1-7.45c1-1.05,1.8-1.35,3.2-1.35h11.05c1.4,0,2.2.3,3.2,1.35l7,7.3c1,1.05,1.3,1.85,1.3,3.25v18.6ZM149.26,25.88h-5.65l-4.15,4v3.9h13.95l.1-3.8-4.25-4.1Z"/>
      <path fill="#bcbcbc" d="M175.46,48.78c-1.4,0-1.9-.5-1.9-1.9v-28.2c0-1.4.5-1.9,1.9-1.9h24.3c1.4,0,2.2.3,3.2,1.3l5.9,5.95c1,1,1.3,1.8,1.3,3.2v11.15c0,1.4-.35,2.25-1.35,3.25l-5.8,5.8c-1,1-1.85,1.35-3.25,1.35h-24.3ZM183.86,39.23h12.75l2.4-2.45v-7.9l-2.5-2.55h-12.65v12.9Z"/>
      <path fill="#bcbcbc" d="M221.66,48.78c-1.4,0-1.9-.5-1.9-1.9v-28.2c0-1.4.5-1.9,1.9-1.9h24.3c1.4,0,2.2.3,3.2,1.3l5.9,5.95c1,1,1.3,1.8,1.3,3.2v11.15c0,1.4-.35,2.25-1.35,3.25l-5.8,5.8c-1,1-1.85,1.35-3.25,1.35h-24.3ZM230.06,39.23h12.75l2.4-2.45v-7.9l-2.5-2.55h-12.65v12.9Z"/>
      <path fill="#bcbcbc" d="M265.96,18.63c0-1.4.5-1.9,1.9-1.9h6.5c1.4,0,1.9.45,1.9,1.9v28.3c0,1.4-.5,1.9-1.9,1.9h-6.5c-1.4,0-1.9-.5-1.9-1.9v-28.3Z"/>
      <path fill="#bcbcbc" d="M308.46,18.58c0-1.4.5-1.85,1.9-1.85h6.6c1.4,0,1.9.45,1.9,1.85l-.05,15.5c0,1.4-.3,2.15-1.3,3.15l-13.6,13.4c-1,1-1.65,1-2.7-.05l-13.55-13.3c-1.05-1.05-1.4-1.8-1.4-3.2l-.05-15.5c0-1.4.5-1.85,1.9-1.85h6.6c1.4,0,1.9.45,1.9,1.85l-.05,13.8,6,6.3,6-6.25-.1-13.85Z"/>
      <path fill="#bcbcbc" d="M364.71,23.88c1,.95,1.3,1.75,1.3,3.15l.05,11.45c0,1.4-.35,2.15-1.4,3.2l-6.2,6.1c-1.05,1.05-1.9,1.35-3.3,1.35h-16.7c-1.4,0-2.25-.3-3.3-1.35l-6.1-6c-1.05-1.05-1.4-1.85-1.4-3.25v-11.35c0-1.4.35-2.2,1.4-3.25l6.3-6.2c1-1,1.8-1.3,3.2-1.3h16.7c1.4,0,2.2.3,3.2,1.3l6.25,6.15ZM352.46,25.98h-11.2l-2.85,2.8v7.95l2.9,2.85h11.25l2.8-2.75.05-8.05-2.95-2.8Z"/>
      <path fill="#bcbcbc" d="M372.76,23.08c-1.05-1-1.1-1.65-.1-2.65l4.9-4.95c1-1,1.6-1,2.6.05l9.8,10.3,9.8-10.3c1-1.05,1.6-1.05,2.6-.05l4.75,4.8c1,1,.95,1.6-.1,2.65l-9.75,9.55,10.2,10.1c1,1,1,1.6,0,2.6l-4.9,4.85c-1,1-1.6.95-2.6-.1l-9.95-10.5-10.05,10.55c-1,1.05-1.6,1.05-2.6.05l-4.7-4.75c-1-1-1-1.6,0-2.6l10.05-9.9-9.95-9.7Z"/>
    </g>
    <g>
      <g>
        <polygon fill="#606072" points="116.94 31.49 118.44 32.99 23.59 32.99 25.09 31.49 116.94 31.49"/>
        <polygon fill="#131316" points="25.09 31.49 23.59 29.99 118.44 29.99 116.94 31.49 25.09 31.49"/>
        <polygon fill="#3f3f49" points="25.09 31.49 23.59 32.99 23.59 29.99 25.09 31.49"/>
        <polygon fill="#4f4f5b" points="118.44 29.99 118.44 32.99 116.94 31.49 118.44 29.99"/>
      </g>
      <g>
        <polygon fill="#3f3f49" points="103.52 44.99 102.02 46.49 102.02 32.99 103.52 31.49 103.52 44.99"/>
        <polygon fill="#4f4f5b" points="103.52 31.49 105.02 32.99 105.02 46.49 103.52 44.99 103.52 31.49"/>
        <polygon fill="#606072" points="105.02 46.49 102.02 46.49 103.52 44.99 105.02 46.49"/>
      </g>
      <g>
        <polygon fill="#3f3f49" points="103.52 31.49 102.02 29.99 102.02 16.49 103.52 17.99 103.52 31.49"/>
        <polygon fill="#4f4f5b" points="103.52 17.99 105.02 16.49 105.02 29.99 103.52 31.49 103.52 17.99"/>
        <polygon fill="#131316" points="103.52 17.99 102.02 16.49 105.02 16.49 103.52 17.99"/>
      </g>
      <g>
        <polygon fill="#3f3f49" points="90.52 42.99 89.02 44.49 89.02 32.99 90.52 31.49 90.52 42.99"/>
        <polygon fill="#4f4f5b" points="90.52 31.49 92.02 32.99 92.02 44.49 90.52 42.99 90.52 31.49"/>
        <polygon fill="#606072" points="92.02 44.49 89.02 44.49 90.52 42.99 92.02 44.49"/>
      </g>
      <g>
        <polygon fill="#3f3f49" points="90.52 31.49 89.02 29.99 89.02 18.49 90.52 19.99 90.52 31.49"/>
        <polygon fill="#4f4f5b" points="90.52 19.99 92.02 18.49 92.02 29.99 90.52 31.49 90.52 19.99"/>
        <polygon fill="#131316" points="90.52 19.99 89.02 18.49 92.02 18.49 90.52 19.99"/>
      </g>
      <g>
        <polygon fill="#3f3f49" points="77.52 40.99 76.02 42.49 76.02 32.99 77.52 31.49 77.52 40.99"/>
        <polygon fill="#4f4f5b" points="77.52 31.49 79.02 32.99 79.02 42.49 77.52 40.99 77.52 31.49"/>
        <polygon fill="#606072" points="79.02 42.49 76.02 42.49 77.52 40.99 79.02 42.49"/>
      </g>
      <g>
        <polygon fill="#3f3f49" points="77.52 31.49 76.02 29.99 76.02 20.49 77.52 21.99 77.52 31.49"/>
        <polygon fill="#4f4f5b" points="77.52 21.99 79.02 20.49 79.02 29.99 77.52 31.49 77.52 21.99"/>
        <polygon fill="#131316" points="77.52 21.99 76.02 20.49 79.02 20.49 77.52 21.99"/>
      </g>
      <g>
        <polygon fill="#3f3f49" points="64.52 38.99 63.02 40.49 63.02 32.99 64.52 31.49 64.52 38.99"/>
        <polygon fill="#4f4f5b" points="64.52 31.49 66.02 32.99 66.02 40.49 64.52 38.99 64.52 31.49"/>
        <polygon fill="#606072" points="66.02 40.49 63.02 40.49 64.52 38.99 66.02 40.49"/>
      </g>
      <g>
        <polygon fill="#3f3f49" points="64.52 31.49 63.02 29.99 63.02 22.49 64.52 23.99 64.52 31.49"/>
        <polygon fill="#4f4f5b" points="64.52 23.99 66.02 22.49 66.02 29.99 64.52 31.49 64.52 23.99"/>
        <polygon fill="#131316" points="64.52 23.99 63.02 22.49 66.02 22.49 64.52 23.99"/>
      </g>
      <g>
        <polygon fill="#3f3f49" points="51.52 36.99 50.02 38.49 50.02 32.99 51.52 31.49 51.52 36.99"/>
        <polygon fill="#4f4f5b" points="51.52 31.49 53.02 32.99 53.02 38.49 51.52 36.99 51.52 31.49"/>
        <polygon fill="#606072" points="53.02 38.49 50.02 38.49 51.52 36.99 53.02 38.49"/>
      </g>
      <g>
        <polygon fill="#3f3f49" points="51.52 31.49 50.02 29.99 50.02 24.49 51.52 25.99 51.52 31.49"/>
        <polygon fill="#4f4f5b" points="51.52 25.99 53.02 24.49 53.02 29.99 51.52 31.49 51.52 25.99"/>
        <polygon fill="#131316" points="51.52 25.99 50.02 24.49 53.02 24.49 51.52 25.99"/>
      </g>
      <g>
        <polygon fill="#3f3f49" points="38.52 35.99 37.02 37.49 37.02 32.99 38.52 31.49 38.52 35.99"/>
        <polygon fill="#4f4f5b" points="38.52 31.49 40.02 32.99 40.02 37.49 38.52 35.99 38.52 31.49"/>
        <polygon fill="#606072" points="40.02 37.49 37.02 37.49 38.52 35.99 40.02 37.49"/>
      </g>
      <g>
        <polygon fill="#3f3f49" points="38.52 31.49 37.02 29.99 37.02 26.49 38.52 27.99 38.52 31.49"/>
        <polygon fill="#4f4f5b" points="38.52 27.99 40.02 26.49 40.02 29.99 38.52 31.49 38.52 27.99"/>
        <polygon fill="#131316" points="38.52 27.99 37.02 26.49 40.02 26.49 38.52 27.99"/>
      </g>
    </g>
    <g>
      <g>
        <polygon fill="#606072" points="512.7 30.99 514.2 32.49 419.34 32.49 420.84 30.99 512.7 30.99"/>
        <polygon fill="#131316" points="420.84 30.99 419.34 29.49 514.2 29.49 512.7 30.99 420.84 30.99"/>
        <polygon fill="#3f3f49" points="420.84 30.99 419.34 32.49 419.34 29.49 420.84 30.99"/>
        <polygon fill="#4f4f5b" points="514.2 29.49 514.2 32.49 512.7 30.99 514.2 29.49"/>
      </g>
      <g>
        <polygon fill="#3f3f49" points="499.27 34.49 497.77 35.99 497.77 32.49 499.27 30.99 499.27 34.49"/>
        <polygon fill="#4f4f5b" points="499.27 30.99 500.77 32.49 500.77 35.99 499.27 34.49 499.27 30.99"/>
        <polygon fill="#606072" points="500.77 35.99 497.77 35.99 499.27 34.49 500.77 35.99"/>
      </g>
      <g>
        <polygon fill="#3f3f49" points="499.27 30.99 497.77 29.49 497.77 25.99 499.27 27.49 499.27 30.99"/>
        <polygon fill="#4f4f5b" points="499.27 27.49 500.77 25.99 500.77 29.49 499.27 30.99 499.27 27.49"/>
        <polygon fill="#131316" points="499.27 27.49 497.77 25.99 500.77 25.99 499.27 27.49"/>
      </g>
      <g>
        <polygon fill="#3f3f49" points="486.27 36.49 484.77 37.99 484.77 32.49 486.27 30.99 486.27 36.49"/>
        <polygon fill="#4f4f5b" points="486.27 30.99 487.77 32.49 487.77 37.99 486.27 36.49 486.27 30.99"/>
        <polygon fill="#606072" points="487.77 37.99 484.77 37.99 486.27 36.49 487.77 37.99"/>
      </g>
      <g>
        <polygon fill="#3f3f49" points="486.27 30.99 484.77 29.49 484.77 23.99 486.27 25.49 486.27 30.99"/>
        <polygon fill="#4f4f5b" points="486.27 25.49 487.77 23.99 487.77 29.49 486.27 30.99 486.27 25.49"/>
        <polygon fill="#131316" points="486.27 25.49 484.77 23.99 487.77 23.99 486.27 25.49"/>
      </g>
      <g>
        <polygon fill="#3f3f49" points="473.27 38.49 471.77 39.99 471.77 32.49 473.27 30.99 473.27 38.49"/>
        <polygon fill="#4f4f5b" points="473.27 30.99 474.77 32.49 474.77 39.99 473.27 38.49 473.27 30.99"/>
        <polygon fill="#606072" points="474.77 39.99 471.77 39.99 473.27 38.49 474.77 39.99"/>
      </g>
      <g>
        <polygon fill="#3f3f49" points="473.27 30.99 471.77 29.49 471.77 21.99 473.27 23.49 473.27 30.99"/>
        <polygon fill="#4f4f5b" points="473.27 23.49 474.77 21.99 474.77 29.49 473.27 30.99 473.27 23.49"/>
        <polygon fill="#131316" points="473.27 23.49 471.77 21.99 474.77 21.99 473.27 23.49"/>
      </g>
      <g>
        <polygon fill="#3f3f49" points="460.27 40.49 458.77 41.99 458.77 32.49 460.27 30.99 460.27 40.49"/>
        <polygon fill="#4f4f5b" points="460.27 30.99 461.77 32.49 461.77 41.99 460.27 40.49 460.27 30.99"/>
        <polygon fill="#606072" points="461.77 41.99 458.77 41.99 460.27 40.49 461.77 41.99"/>
      </g>
      <g>
        <polygon fill="#3f3f49" points="460.27 30.99 458.77 29.49 458.77 19.99 460.27 21.49 460.27 30.99"/>
        <polygon fill="#4f4f5b" points="460.27 21.49 461.77 19.99 461.77 29.49 460.27 30.99 460.27 21.49"/>
        <polygon fill="#131316" points="460.27 21.49 458.77 19.99 461.77 19.99 460.27 21.49"/>
      </g>
      <g>
        <polygon fill="#3f3f49" points="447.27 42.49 445.77 43.99 445.77 32.49 447.27 30.99 447.27 42.49"/>
        <polygon fill="#4f4f5b" points="447.27 30.99 448.77 32.49 448.77 43.99 447.27 42.49 447.27 30.99"/>
        <polygon fill="#606072" points="448.77 43.99 445.77 43.99 447.27 42.49 448.77 43.99"/>
      </g>
      <g>
        <polygon fill="#3f3f49" points="447.27 30.99 445.77 29.49 445.77 17.99 447.27 19.49 447.27 30.99"/>
        <polygon fill="#4f4f5b" points="447.27 19.49 448.77 17.99 448.77 29.49 447.27 30.99 447.27 19.49"/>
        <polygon fill="#131316" points="447.27 19.49 445.77 17.99 448.77 17.99 447.27 19.49"/>
      </g>
      <g>
        <polygon fill="#3f3f49" points="434.27 45.49 432.77 46.99 432.77 32.49 434.27 30.99 434.27 45.49"/>
        <polygon fill="#4f4f5b" points="434.27 30.99 435.77 32.49 435.77 46.99 434.27 45.49 434.27 30.99"/>
        <polygon fill="#606072" points="435.77 46.99 432.77 46.99 434.27 45.49 435.77 46.99"/>
      </g>
      <g>
        <polygon fill="#3f3f49" points="434.27 30.99 432.77 29.49 432.77 15.99 434.27 17.49 434.27 30.99"/>
        <polygon fill="#4f4f5b" points="434.27 17.49 435.77 15.99 435.77 29.49 434.27 30.99 434.27 17.49"/>
        <polygon fill="#131316" points="434.27 17.49 432.77 15.99 435.77 15.99 434.27 17.49"/>
      </g>
    </g>
    <g>
      <polygon fill="#606072" points="214.5 443.5 216 445 193 445 194.5 443.5 214.5 443.5"/>
      <polygon fill="#131316" points="194.5 443.5 193 442 216 442 214.5 443.5 194.5 443.5"/>
      <polygon fill="#3f3f49" points="194.5 443.5 193 445 193 442 194.5 443.5"/>
      <polygon fill="#4f4f5b" points="216 442 216 445 214.5 443.5 216 442"/>
    </g>
    <g>
      <polygon fill="#606072" points="389.5 443.5 391 445 318.49 445 319.98 443.5 389.5 443.5"/>
      <polygon fill="#131316" points="319.98 443.5 318.49 442 391 442 389.5 443.5 319.98 443.5"/>
      <polygon fill="#3f3f49" points="319.99 443.5 318.49 445 318.49 442 319.99 443.5"/>
      <polygon fill="#4f4f5b" points="391 442 391 445 389.5 443.5 391 442"/>
    </g>
    <g>
      <path fill="#bcbcbc" d="M445.07,441.46c0,2.07-1.57,3.85-3.94,3.85h-3.8v4.32h-2.3v-10.84c0-.63.52-1.15,1.15-1.15h4.95c2.38,0,3.94,1.75,3.94,3.82ZM442.75,441.46c0-1.15-.9-1.84-1.94-1.84h-3.47v3.71h3.47c1.04,0,1.94-.74,1.94-1.87Z"/>
      <path fill="#bcbcbc" d="M447.12,449.64v-11.99h2.3v11.99h-2.3Z"/>
      <path fill="#bcbcbc" d="M457.67,439.66v9.97h-2.3v-9.97h-3.98v-2.02h10.26v2.02h-3.98Z"/>
      <path fill="#bcbcbc" d="M472.07,439.82c-.77-.22-1.78-.32-2.7-.32-2.88,0-4.59,1.78-4.59,4.14s1.71,4.16,4.59,4.16c.92,0,1.85-.14,2.7-.4l.47,1.85c-.92.38-2.21.58-3.42.58-3.91,0-6.68-2.59-6.68-6.19s2.72-6.18,6.68-6.18c1.17,0,2.36.13,3.46.49l-.5,1.87Z"/>
      <path fill="#bcbcbc" d="M483.28,449.64v-5.06h-5.73v5.06h-2.3v-11.99h2.3v4.88h5.73v-4.88h2.3v11.99h-2.3Z"/>
    </g>
    <g>
      <polygon fill="#606072" points="428.5 443.5 430 445 407 445 408.5 443.5 428.5 443.5"/>
      <polygon fill="#131316" points="408.5 443.5 407 442 430 442 428.5 443.5 408.5 443.5"/>
      <polygon fill="#3f3f49" points="408.5 443.5 407 445 407 442 408.5 443.5"/>
      <polygon fill="#4f4f5b" points="430 442 430 445 428.5 443.5 430 442"/>
    </g>
    <g>
      <polygon fill="#606072" points="653.5 443.5 655 445 490.58 445 492.08 443.5 653.5 443.5"/>
      <polygon fill="#131316" points="492.08 443.5 490.58 442 655 442 653.5 443.5 492.08 443.5"/>
      <polygon fill="#3f3f49" points="492.08 443.5 490.58 445 490.58 442 492.08 443.5"/>
      <polygon fill="#4f4f5b" points="655 442 655 445 653.5 443.5 655 442"/>
    </g>
    <g>
      <path fill="#bcbcbc" d="M709.03,446.09c0,2.03-1.73,3.55-4.02,3.55h-4.84c-.63,0-1.15-.52-1.15-1.15v-9.69c0-.63.52-1.15,1.15-1.15h3.83c2.56,0,4.25,1.15,4.25,3.17,0,.94-.5,1.82-1.31,2.41,1.28.5,2.09,1.58,2.09,2.86ZM705.9,440.99c0-.88-.74-1.48-1.76-1.48h-2.81v3.12h2.72c1.22,0,1.85-.72,1.85-1.64ZM706.66,446.09c0-.95-.7-1.6-1.78-1.6h-3.55v3.24h3.55c1.04,0,1.78-.65,1.78-1.64Z"/>
      <path fill="#bcbcbc" d="M712.76,449.64c-.61,0-1.13-.52-1.13-1.15v-10.84h2.3v9.99h6.34v2h-7.51Z"/>
      <path fill="#bcbcbc" d="M722.4,449.64v-11.99h2.3v11.99h-2.3Z"/>
      <path fill="#bcbcbc" d="M738.16,441.46c0,2.07-1.57,3.85-3.94,3.85h-3.8v4.32h-2.3v-10.84c0-.63.52-1.15,1.15-1.15h4.95c2.38,0,3.94,1.75,3.94,3.82ZM735.83,441.46c0-1.15-.9-1.84-1.94-1.84h-3.47v3.71h3.47c1.04,0,1.94-.74,1.94-1.87Z"/>
      <path fill="#bcbcbc" d="M754.64,447.22c-.92,1.51-2.75,2.61-5.04,2.61-3.53,0-6.43-2.58-6.43-6.19,0-3.8,2.77-6.18,6.61-6.18,1.64,0,2.92.29,4.03.72l-.49,1.85c-.97-.34-2.14-.56-3.28-.56-2.72,0-4.5,1.62-4.5,4.16,0,2.39,1.62,4.09,4.05,4.09,1.22,0,2.18-.38,2.77-1.06v-2.94h2.27v3.49Z"/>
      <path fill="#bcbcbc" d="M767.53,444.81c0,2.67-2.02,5.02-5.24,5.02s-5.24-2.36-5.24-5.02v-7.17h2.3v7.18c0,1.8,1.19,2.95,2.93,2.95s2.93-1.15,2.93-2.95v-7.18h2.3v7.17Z"/>
      <path fill="#bcbcbc" d="M777.68,449.64l-1.04-2.68h-4.65l-1.04,2.68h-2.36l4.77-11.47c.18-.41.56-.65.95-.65s.79.23.97.65l4.75,11.47h-2.36ZM774.32,440.9l-1.64,4.23h3.29l-1.66-4.23Z"/>
      <path fill="#bcbcbc" d="M790.17,449.64l-2.65-4.52h-3.31v4.52h-2.3v-10.84c0-.63.52-1.15,1.15-1.15h5.33c2.29,0,3.87,1.67,3.87,3.75,0,1.53-.92,2.84-2.32,3.4l2.86,4.84h-2.63ZM789.92,441.35c0-1.13-.92-1.73-1.96-1.73h-3.75v3.51h3.75c1.04,0,1.96-.63,1.96-1.78Z"/>
      <path fill="#bcbcbc" d="M805.76,443.64c0,3.51-2.83,6-7.54,6h-1.62c-.63,0-1.15-.52-1.15-1.15v-9.69c0-.63.52-1.15,1.15-1.15h1.62c4.74,0,7.54,2.48,7.54,6ZM803.44,443.64c0-2.72-2.3-3.94-4.83-3.94h-.86v7.89h.86c2.52,0,4.83-1.22,4.83-3.94Z"/>
    </g>
    <g>
      <polygon fill="#606072" points="692.5 443.5 694 445 671 445 672.5 443.5 692.5 443.5"/>
      <polygon fill="#131316" points="672.5 443.5 671 442 694 442 692.5 443.5 672.5 443.5"/>
      <polygon fill="#3f3f49" points="672.5 443.5 671 445 671 442 672.5 443.5"/>
      <polygon fill="#4f4f5b" points="694 442 694 445 692.5 443.5 694 442"/>
    </g>
    <g>
      <polygon fill="#606072" points="835.5 443.5 837 445 810.76 445 812.26 443.5 835.5 443.5"/>
      <polygon fill="#131316" points="812.26 443.5 810.76 442 837 442 835.5 443.5 812.26 443.5"/>
      <polygon fill="#3f3f49" points="812.26 443.5 810.76 445 810.76 442 812.26 443.5"/>
      <polygon fill="#4f4f5b" points="837 442 837 445 835.5 443.5 837 442"/>
    </g>
    <g>
      <path fill="#bcbcbc" d="M892.4,305.66c0,3.44-2.52,6.18-6.14,6.18s-6.14-2.74-6.14-6.18,2.52-6.19,6.14-6.19,6.14,2.75,6.14,6.19ZM890.11,305.66c0-2.39-1.51-4.14-3.85-4.14s-3.83,1.75-3.83,4.14,1.49,4.12,3.83,4.12,3.85-1.73,3.85-4.12Z"/>
      <path fill="#bcbcbc" d="M905.11,306.81c0,2.67-2.02,5.02-5.24,5.02s-5.24-2.36-5.24-5.02v-7.17h2.3v7.18c0,1.8,1.19,2.95,2.93,2.95s2.93-1.15,2.93-2.95v-7.18h2.3v7.17Z"/>
      <path fill="#bcbcbc" d="M913.08,301.66v9.97h-2.3v-9.97h-3.98v-2.02h10.26v2.02h-3.98Z"/>
      <path fill="#bcbcbc" d="M928.98,303.46c0,2.07-1.57,3.85-3.94,3.85h-3.8v4.32h-2.3v-10.84c0-.63.52-1.15,1.15-1.15h4.95c2.38,0,3.94,1.75,3.94,3.82ZM926.65,303.46c0-1.15-.9-1.84-1.95-1.84h-3.47v3.71h3.47c1.04,0,1.95-.74,1.95-1.87Z"/>
      <path fill="#bcbcbc" d="M941.23,306.81c0,2.67-2.02,5.02-5.24,5.02s-5.24-2.36-5.24-5.02v-7.17h2.3v7.18c0,1.8,1.19,2.95,2.93,2.95s2.93-1.15,2.93-2.95v-7.18h2.3v7.17Z"/>
      <path fill="#bcbcbc" d="M949.21,301.66v9.97h-2.3v-9.97h-3.98v-2.02h10.26v2.02h-3.98Z"/>
    </g>
    <g>
      <polygon fill="#606072" points="874.5 305.5 876 307 853 307 854.5 305.5 874.5 305.5"/>
      <polygon fill="#131316" points="854.5 305.5 853 304 876 304 874.5 305.5 854.5 305.5"/>
      <polygon fill="#3f3f49" points="854.5 305.5 853 307 853 304 854.5 305.5"/>
      <polygon fill="#4f4f5b" points="876 304 876 307 874.5 305.5 876 304"/>
    </g>
    <g>
      <polygon fill="#606072" points="1077.5 305.5 1079 307 958.18 307 959.68 305.5 1077.5 305.5"/>
      <polygon fill="#131316" points="959.68 305.5 958.18 304 1079 304 1077.5 305.5 959.68 305.5"/>
      <polygon fill="#3f3f49" points="959.68 305.5 958.18 307 958.18 304 959.68 305.5"/>
      <polygon fill="#4f4f5b" points="1079 304 1079 307 1077.5 305.5 1079 304"/>
    </g>
    <g>
      <path fill="#bcbcbc" d="M882.17,397.64c-.63,0-1.15-.52-1.15-1.15v-9.69c0-.63.52-1.15,1.15-1.15h7.45v1.98h-6.3v2.88h4.75c.56,0,1.01.45,1.01.99s-.45.99-1.01.99h-4.75v3.17h6.32v1.98h-7.47Z"/>
      <path fill="#bcbcbc" d="M894.68,387.62v2.88h4.93c.54,0,.99.45.99.99s-.45.99-.99.99h-4.93v5.15h-2.3v-10.84c0-.63.52-1.15,1.15-1.15h7.76v1.98h-6.61Z"/>
      <path fill="#bcbcbc" d="M905.92,387.62v2.88h4.93c.54,0,.99.45.99.99s-.45.99-.99.99h-4.93v5.15h-2.3v-10.84c0-.63.52-1.15,1.15-1.15h7.76v1.98h-6.61Z"/>
      <path fill="#bcbcbc" d="M915.99,397.64c-.63,0-1.15-.52-1.15-1.15v-9.69c0-.63.52-1.15,1.15-1.15h7.45v1.98h-6.3v2.88h4.75c.56,0,1.01.45,1.01.99s-.45.99-1.01.99h-4.75v3.17h6.32v1.98h-7.47Z"/>
      <path fill="#bcbcbc" d="M934.93,387.82c-.77-.22-1.78-.32-2.7-.32-2.88,0-4.59,1.78-4.59,4.14s1.71,4.16,4.59,4.16c.92,0,1.85-.14,2.7-.4l.47,1.85c-.92.38-2.21.58-3.42.58-3.91,0-6.68-2.59-6.68-6.19s2.72-6.18,6.68-6.18c1.17,0,2.36.13,3.46.49l-.5,1.87Z"/>
      <path fill="#bcbcbc" d="M943.14,387.66v9.97h-2.3v-9.97h-3.98v-2.02h10.26v2.02h-3.98Z"/>
      <path fill="#bcbcbc" d="M957.88,394.38c0,2.23-2.03,3.46-4.88,3.46-1.58,0-3.22-.36-4.74-.94l.43-1.78c1.33.45,2.93.77,4.34.77,1.69,0,2.54-.52,2.54-1.33,0-.72-.94-1.15-3.42-2.29-2.36-1.06-3.51-1.95-3.51-3.67,0-2.16,1.46-3.13,4.72-3.13,1.31,0,3.21.29,4.27.59l-.34,1.85c-1.35-.27-2.77-.47-3.89-.47-1.85,0-2.45.31-2.45,1.04,0,.77.59,1.08,3.17,2.27,2.59,1.19,3.76,1.76,3.76,3.62Z"/>
    </g>
    <g>
      <polygon fill="#606072" points="874.5 391.5 876 393 853 393 854.5 391.5 874.5 391.5"/>
      <polygon fill="#131316" points="854.5 391.5 853 390 876 390 874.5 391.5 854.5 391.5"/>
      <polygon fill="#3f3f49" points="854.5 391.5 853 393 853 390 854.5 391.5"/>
      <polygon fill="#4f4f5b" points="876 390 876 393 874.5 391.5 876 390"/>
    </g>
    <g>
      <polygon fill="#606072" points="1077.5 391.5 1079 393 962.88 393 964.38 391.5 1077.5 391.5"/>
      <polygon fill="#131316" points="964.38 391.5 962.88 390 1079 390 1077.5 391.5 964.38 391.5"/>
      <polygon fill="#3f3f49" points="964.38 391.5 962.88 393 962.88 390 964.38 391.5"/>
      <polygon fill="#4f4f5b" points="1079 390 1079 393 1077.5 391.5 1079 390"/>
    </g>
    <g>
      <path fill="#bcbcbc" d="M886.15,87.1c-.16.41-.56.65-.99.65s-.81-.23-.97-.65l-4.7-11.45h2.29l3.38,8.39,3.38-8.39h2.27l-4.66,11.45Z"/>
      <path fill="#bcbcbc" d="M898.81,87.64l-1.04-2.68h-4.65l-1.04,2.68h-2.36l4.77-11.47c.18-.41.56-.65.95-.65s.79.23.97.65l4.75,11.47h-2.36ZM895.44,78.9l-1.64,4.23h3.29l-1.66-4.23Z"/>
      <path fill="#bcbcbc" d="M911.3,87.64l-2.65-4.52h-3.31v4.52h-2.3v-10.84c0-.63.52-1.15,1.15-1.15h5.33c2.29,0,3.87,1.67,3.87,3.75,0,1.53-.92,2.84-2.32,3.4l2.86,4.84h-2.63ZM911.05,79.35c0-1.13-.92-1.73-1.96-1.73h-3.75v3.51h3.75c1.04,0,1.96-.63,1.96-1.78Z"/>
      <path fill="#bcbcbc" d="M916.66,87.64v-11.99h2.3v11.99h-2.3Z"/>
      <path fill="#bcbcbc" d="M930.02,87.64l-1.04-2.68h-4.65l-1.04,2.68h-2.36l4.77-11.47c.18-.41.56-.65.96-.65s.79.23.97.65l4.75,11.47h-2.36ZM926.65,78.9l-1.64,4.23h3.29l-1.66-4.23Z"/>
      <path fill="#bcbcbc" d="M938.37,77.66v9.97h-2.3v-9.97h-3.98v-2.02h10.26v2.02h-3.98Z"/>
      <path fill="#bcbcbc" d="M944.31,87.64v-11.99h2.3v11.99h-2.3Z"/>
      <path fill="#bcbcbc" d="M961.39,81.66c0,3.44-2.52,6.18-6.14,6.18s-6.14-2.74-6.14-6.18,2.52-6.19,6.14-6.19,6.14,2.75,6.14,6.19ZM959.11,81.66c0-2.39-1.51-4.14-3.85-4.14s-3.83,1.75-3.83,4.14,1.49,4.12,3.83,4.12,3.85-1.73,3.85-4.12Z"/>
      <path fill="#bcbcbc" d="M974.19,86.59c0,.59-.43,1.06-1.01,1.13-.36.05-.77-.05-1.03-.38l-6.05-7.71v7.99h-2.3v-10.96c0-.63.52-1.15,1.15-1.15.36,0,.63.09.88.4l6.05,7.69v-7.96h2.3v10.95Z"/>
    </g>
    <g>
      <polygon fill="#606072" points="874.5 81.5 876 83 853 83 854.5 81.5 874.5 81.5"/>
      <polygon fill="#131316" points="854.5 81.5 853 80 876 80 874.5 81.5 854.5 81.5"/>
      <polygon fill="#3f3f49" points="854.5 81.5 853 83 853 80 854.5 81.5"/>
      <polygon fill="#4f4f5b" points="876 80 876 83 874.5 81.5 876 80"/>
    </g>
    <g>
      <polygon fill="#606072" points="1077.5 81.5 1079 83 979.19 83 980.69 81.5 1077.5 81.5"/>
      <polygon fill="#131316" points="980.69 81.5 979.19 80 1079 80 1077.5 81.5 980.69 81.5"/>
      <polygon fill="#3f3f49" points="980.69 81.5 979.19 83 979.19 80 980.69 81.5"/>
      <polygon fill="#4f4f5b" points="1079 80 1079 83 1077.5 81.5 1079 80"/>
    </g>
    <g>
      <polygon fill="#606072" points="1073 113 1074 114 858 114 859 113 1073 113"/>
      <polygon fill="#131316" points="859 113 858 112 1074 112 1073 113 859 113"/>
      <polygon fill="#3f3f49" points="859 113 858 114 858 112 859 113"/>
      <polygon fill="#4f4f5b" points="1074 112 1074 114 1073 113 1074 112"/>
    </g>
    <g>
      <polygon fill="#606072" points="1073 167 1074 168 858 168 859 167 1073 167"/>
      <polygon fill="#131316" points="859 167 858 166 1074 166 1073 167 859 167"/>
      <polygon fill="#3f3f49" points="859 167 858 168 858 166 859 167"/>
      <polygon fill="#4f4f5b" points="1074 166 1074 168 1073 167 1074 166"/>
    </g>
    <g>
      <polygon fill="#606072" points="1073 221 1074 222 858 222 859 221 1073 221"/>
      <polygon fill="#131316" points="859 221 858 220 1074 220 1073 221 859 221"/>
      <polygon fill="#3f3f49" points="859 221 858 222 858 220 859 221"/>
      <polygon fill="#4f4f5b" points="1074 220 1074 222 1073 221 1074 220"/>
    </g>
    <g>
      <polygon fill="#606072" points="1073 277 1074 278 858 278 859 277 1073 277"/>
      <polygon fill="#131316" points="859 277 858 276 1074 276 1073 277 859 277"/>
      <polygon fill="#3f3f49" points="859 277 858 278 858 276 859 277"/>
      <polygon fill="#4f4f5b" points="1074 276 1074 278 1073 277 1074 276"/>
    </g>
    <g>
      <path fill="#bcbcbc" d="M865.15,192.82c0,1.27-.96,2.35-2.41,2.35h-2.32v2.64h-1.41v-6.62c0-.38.32-.7.7-.7h3.03c1.45,0,2.41,1.07,2.41,2.33ZM863.73,192.82c0-.7-.55-1.12-1.19-1.12h-2.12v2.27h2.12c.64,0,1.19-.45,1.19-1.14Z"/>
      <path fill="#bcbcbc" d="M870.37,197.81l-.64-1.64h-2.84l-.64,1.64h-1.44l2.92-7.01c.11-.25.34-.4.58-.4s.48.14.59.4l2.9,7.01h-1.44ZM868.31,192.47l-1,2.59h2.01l-1.01-2.59Z"/>
      <path fill="#bcbcbc" d="M879.3,197.17c0,.36-.26.65-.62.69-.22.03-.47-.03-.63-.23l-3.7-4.71v4.88h-1.41v-6.7c0-.38.32-.7.7-.7.22,0,.38.06.54.24l3.7,4.7v-4.86h1.41v6.69Z"/>
    </g>
    <g>
      <path fill="#bcbcbc" d="M865.15,246.82c0,1.27-.96,2.35-2.41,2.35h-2.32v2.64h-1.41v-6.62c0-.38.32-.7.7-.7h3.03c1.45,0,2.41,1.07,2.41,2.33ZM863.73,246.82c0-.7-.55-1.12-1.19-1.12h-2.12v2.27h2.12c.64,0,1.19-.45,1.19-1.14Z"/>
      <path fill="#bcbcbc" d="M866.4,251.81v-7.33h1.41v7.33h-1.41Z"/>
      <path fill="#bcbcbc" d="M872.85,245.72v6.09h-1.41v-6.09h-2.43v-1.23h6.27v1.23h-2.43Z"/>
      <path fill="#bcbcbc" d="M881.65,245.81c-.47-.13-1.09-.2-1.65-.2-1.76,0-2.81,1.09-2.81,2.53s1.04,2.54,2.81,2.54c.56,0,1.13-.09,1.65-.24l.29,1.13c-.56.23-1.35.35-2.09.35-2.39,0-4.08-1.58-4.08-3.78s1.66-3.77,4.08-3.77c.71,0,1.44.08,2.11.3l-.31,1.14Z"/>
      <path fill="#bcbcbc" d="M888.5,251.81v-3.09h-3.5v3.09h-1.41v-7.33h1.41v2.98h3.5v-2.98h1.41v7.33h-1.41Z"/>
    </g>
  </g>
</svg>
