<?xml version="1.0" encoding="UTF-8"?>
<svg id="Layer_1" data-name="Layer 1" xmlns="http://www.w3.org/2000/svg" width="281.022" height="38.636" viewBox="0 0 281.022 38.636">
  <g>
    <path d="M36.325,34.144c0,1.4-.45,1.9-1.85,1.9l-6.55.05c-1.4,0-1.85-.45-1.8-1.95l.1-4.4h-13.951l.05,4.4c0,1.45-.45,1.95-1.85,1.95h-6.45c-1.4,0-1.9-.45-1.9-1.85l.05-18.601c0-1.4.3-2.15,1.3-3.2l7.101-7.45c1-1.05,1.8-1.35,3.2-1.35h11.051c1.4,0,2.2.3,3.2,1.35l7,7.3c1,1.05,1.3,1.85,1.3,3.25v18.602ZM22.074,13.142h-5.65l-4.15,4v3.9h13.951l.1-3.8-4.25-4.1Z"/>
    <path d="M48.273,36.043c-1.4,0-1.9-.5-1.9-1.9V5.941c0-1.4.5-1.9,1.9-1.9h24.301c1.4,0,2.2.3,3.2,1.3l5.9,5.95c1,1,1.3,1.8,1.3,3.2v11.151c0,1.4-.35,2.25-1.35,3.25l-5.8,5.8c-1,1-1.85,1.35-3.25,1.35h-24.301ZM56.673,26.493h12.75l2.4-2.45v-7.9l-2.5-2.55h-12.651v12.9Z"/>
    <path d="M94.472,36.043c-1.4,0-1.9-.5-1.9-1.9V5.941c0-1.4.5-1.9,1.9-1.9h24.302c1.4,0,2.2.3,3.2,1.3l5.9,5.95c1,1,1.3,1.8,1.3,3.2v11.151c0,1.4-.35,2.25-1.35,3.25l-5.8,5.8c-1,1-1.85,1.35-3.25,1.35h-24.302ZM102.873,26.493h12.75l2.4-2.45v-7.9l-2.5-2.55h-12.651v12.9Z"/>
    <path d="M138.772,5.892c0-1.4.5-1.9,1.9-1.9h6.5c1.4,0,1.9.45,1.9,1.9v28.302c0,1.4-.5,1.9-1.9,1.9h-6.5c-1.4,0-1.9-.5-1.9-1.9V5.892Z"/>
    <path d="M181.273,5.842c0-1.4.5-1.85,1.9-1.85h6.601c1.4,0,1.9.45,1.9,1.85l-.05,15.501c0,1.4-.301,2.15-1.3,3.15l-13.601,13.401c-1,1-1.65,1-2.7-.05l-13.551-13.301c-1.05-1.05-1.4-1.8-1.4-3.2l-.05-15.501c0-1.4.5-1.85,1.9-1.85h6.601c1.4,0,1.9.45,1.9,1.85l-.05,13.801,6,6.3,6-6.25-.1-13.851Z"/>
    <path d="M237.524,11.142c1,.95,1.301,1.75,1.301,3.15l.049,11.451c0,1.4-.35,2.15-1.399,3.2l-6.2,6.101c-1.051,1.05-1.9,1.35-3.301,1.35h-16.701c-1.4,0-2.25-.3-3.3-1.35l-6.101-6c-1.05-1.05-1.4-1.85-1.4-3.25v-11.351c0-1.4.351-2.2,1.4-3.25l6.301-6.2c1-1,1.8-1.3,3.2-1.3h16.7c1.4,0,2.201.3,3.201,1.3l6.25,6.15ZM225.274,13.242h-11.201l-2.851,2.8v7.95l2.9,2.85h11.251l2.8-2.75.05-8.05-2.949-2.8Z"/>
    <path d="M245.572,10.342c-1.05-1-1.101-1.65-.101-2.65l4.9-4.951c1-1,1.601-1,2.601.05l9.801,10.301,9.8-10.301c1.001-1.05,1.602-1.05,2.602-.05l4.75,4.8c1,1,.949,1.6-.101,2.65l-9.751,9.551,10.201,10.101c1,1,1,1.6,0,2.6l-4.9,4.85c-1,1-1.6.95-2.6-.1l-9.951-10.5-10.051,10.551c-1,1.05-1.6,1.05-2.6.05l-4.701-4.75c-1-1-1-1.6,0-2.601l10.051-9.9-9.95-9.701Z"/>
  </g>
  <g>
    <path d="M34.203,32.143c0,1.4-.45,1.9-1.85,1.9l-6.55.05c-1.4,0-1.85-.45-1.8-1.95l.1-4.4h-13.951l.05,4.4c0,1.45-.45,1.95-1.85,1.95H1.901C.501,34.093,0,33.643,0,32.243L.051,13.642c0-1.4.3-2.15,1.3-3.2l7.101-7.45c1-1.05,1.8-1.35,3.2-1.35h11.051c1.4,0,2.2.3,3.2,1.35l7,7.3c1,1.05,1.3,1.85,1.3,3.25v18.602ZM19.952,11.142h-5.65l-4.15,4v3.9h13.951l.1-3.8-4.25-4.1Z" fill="#bcbcbc"/>
    <path d="M46.15,34.043c-1.4,0-1.9-.5-1.9-1.9V3.941c0-1.4.5-1.9,1.9-1.9h24.301c1.4,0,2.2.3,3.2,1.3l5.9,5.95c1,1,1.3,1.8,1.3,3.2v11.151c0,1.4-.35,2.25-1.35,3.25l-5.8,5.8c-1,1-1.85,1.35-3.25,1.35h-24.301ZM54.551,24.492h12.75l2.4-2.45v-7.9l-2.5-2.55h-12.651v12.9Z" fill="#bcbcbc"/>
    <path d="M92.35,34.043c-1.4,0-1.9-.5-1.9-1.9V3.941c0-1.4.5-1.9,1.9-1.9h24.302c1.4,0,2.2.3,3.2,1.3l5.9,5.95c1,1,1.3,1.8,1.3,3.2v11.151c0,1.4-.35,2.25-1.35,3.25l-5.8,5.8c-1,1-1.85,1.35-3.25,1.35h-24.302ZM100.751,24.492h12.75l2.4-2.45v-7.9l-2.5-2.55h-12.651v12.9Z" fill="#bcbcbc"/>
    <path d="M136.65,3.891c0-1.4.5-1.9,1.9-1.9h6.5c1.4,0,1.9.45,1.9,1.9v28.302c0,1.4-.5,1.9-1.9,1.9h-6.5c-1.4,0-1.9-.5-1.9-1.9V3.891Z" fill="#bcbcbc"/>
    <path d="M179.151,3.841c0-1.4.5-1.85,1.9-1.85h6.601c1.4,0,1.9.45,1.9,1.85l-.05,15.501c0,1.4-.3,2.15-1.3,3.15l-13.601,13.401c-1,1-1.65,1-2.7-.05l-13.551-13.301c-1.05-1.05-1.4-1.8-1.4-3.2l-.05-15.501c0-1.4.5-1.85,1.9-1.85h6.601c1.4,0,1.9.45,1.9,1.85l-.05,13.801,6,6.3,6-6.25-.1-13.851Z" fill="#bcbcbc"/>
    <path d="M235.402,9.142c1,.95,1.3,1.75,1.3,3.15l.05,11.451c0,1.4-.35,2.15-1.399,3.2l-6.201,6.101c-1.05,1.05-1.899,1.35-3.3,1.35h-16.701c-1.4,0-2.25-.3-3.3-1.35l-6.101-6c-1.05-1.05-1.4-1.85-1.4-3.25v-11.351c0-1.4.351-2.2,1.4-3.25l6.301-6.2c1-1,1.8-1.3,3.2-1.3h16.7c1.4,0,2.2.3,3.2,1.3l6.251,6.15ZM223.151,11.242h-11.2l-2.851,2.8v7.95l2.9,2.85h11.25l2.801-2.75.05-8.05-2.95-2.8Z" fill="#bcbcbc"/>
    <path d="M243.45,8.341c-1.05-1-1.101-1.65-.101-2.65l4.9-4.951c1-1,1.601-1,2.601.05l9.801,10.301,9.8-10.301c1.001-1.05,1.601-1.05,2.601-.05l4.75,4.8c1,1,.95,1.6-.1,2.65l-9.751,9.551,10.201,10.101c1,1,1,1.6,0,2.6l-4.9,4.85c-1,1-1.601.95-2.601-.1l-9.95-10.5-10.051,10.551c-1,1.05-1.6,1.05-2.601.05l-4.7-4.75c-1-1-1-1.6,0-2.601l10.051-9.9-9.95-9.701Z" fill="#bcbcbc"/>
  </g>
</svg>