<?xml version="1.0" encoding="UTF-8"?>
<svg xmlns="http://www.w3.org/2000/svg" width="1000" height="750" viewBox="0 0 1000 750">
  <g id="background">
    <rect width="1000" height="750"/>
  </g>
  <g id="panels">
    <g>
      <rect x="7" y="7" width="986" height="56" fill="#25252d"/>
      <polygon points="7 7 5 5 995 5 993 7 7 7" fill="#606072"/>
      <polygon points="993 63 995 65 5 65 7 63 993 63" fill="#131316"/>
      <polygon points="993 7 995 5 995 65 993 63 993 7" fill="#3f3f49"/>
      <polygon points="7 63 5 65 5 5 7 7 7 63" fill="#4f4f5b"/>
    </g>
    <g>
      <rect x="7" y="622" width="986" height="121" fill="#25252d"/>
      <polygon points="7 622 5 620 995 620 993 622 7 622" fill="#606072"/>
      <polygon points="993 743 995 745 5 745 7 743 993 743" fill="#131316"/>
      <polygon points="993 622 995 620 995 745 993 743 993 622" fill="#3f3f49"/>
      <polygon points="7 743 5 745 5 620 7 622 7 743" fill="#4f4f5b"/>
    </g>
    <g>
      <rect x="7" y="69" width="986" height="547" fill="#25252d"/>
      <polygon points="7 69 5 67 995 67 993 69 7 69" fill="#606072"/>
      <polygon points="993 616 995 618 5 618 7 616 993 616" fill="#131316"/>
      <polygon points="993 69 995 67 995 618 993 616 993 69" fill="#3f3f49"/>
      <polygon points="7 616 5 618 5 67 7 69 7 616" fill="#4f4f5b"/>
    </g>
  </g>
  <g id="title">
    <g>
      <g>
        <path d="M56.468,51.079c0,1.4-.45,1.9-1.85,1.9l-6.55.05c-1.4,0-1.85-.45-1.8-1.95l.1-4.4h-13.951l.05,4.4c0,1.45-.45,1.95-1.85,1.95h-6.45c-1.4,0-1.9-.45-1.9-1.85l.05-18.601c0-1.4.3-2.15,1.3-3.2l7.101-7.45c1-1.05,1.8-1.35,3.2-1.35h11.051c1.4,0,2.2.3,3.2,1.35l7,7.3c1,1.05,1.3,1.85,1.3,3.25v18.602ZM42.217,30.077h-5.65l-4.15,4v3.9h13.951l.1-3.8-4.25-4.1Z"/>
        <path d="M68.416,52.979c-1.4,0-1.9-.5-1.9-1.9v-28.202c0-1.4.5-1.9,1.9-1.9h24.301c1.4,0,2.2.3,3.2,1.3l5.9,5.95c1,1,1.3,1.8,1.3,3.2v11.151c0,1.4-.35,2.25-1.35,3.25l-5.8,5.8c-1,1-1.85,1.35-3.25,1.35h-24.301ZM76.816,43.428h12.75l2.4-2.45v-7.9l-2.5-2.55h-12.651v12.9Z"/>
        <path d="M114.615,52.979c-1.4,0-1.9-.5-1.9-1.9v-28.202c0-1.4.5-1.9,1.9-1.9h24.302c1.4,0,2.2.3,3.2,1.3l5.9,5.95c1,1,1.3,1.8,1.3,3.2v11.151c0,1.4-.35,2.25-1.35,3.25l-5.8,5.8c-1,1-1.85,1.35-3.25,1.35h-24.302ZM123.016,43.428h12.75l2.4-2.45v-7.9l-2.5-2.55h-12.651v12.9Z"/>
        <path d="M158.915,22.827c0-1.4.5-1.9,1.9-1.9h6.5c1.4,0,1.9.45,1.9,1.9v28.302c0,1.4-.5,1.9-1.9,1.9h-6.5c-1.4,0-1.9-.5-1.9-1.9v-28.302Z"/>
        <path d="M201.416,22.777c0-1.4.5-1.85,1.9-1.85h6.601c1.4,0,1.9.45,1.9,1.85l-.05,15.501c0,1.4-.3,2.15-1.3,3.15l-13.601,13.401c-1,1-1.65,1-2.7-.05l-13.551-13.301c-1.05-1.05-1.4-1.8-1.4-3.2l-.05-15.501c0-1.4.5-1.85,1.9-1.85h6.601c1.4,0,1.9.45,1.9,1.85l-.05,13.801,6,6.3,6-6.25-.1-13.851Z"/>
        <path d="M257.667,28.077c1,.95,1.3,1.75,1.3,3.15l.05,11.451c0,1.4-.35,2.15-1.4,3.2l-6.201,6.101c-1.05,1.05-1.9,1.35-3.3,1.35h-16.701c-1.4,0-2.25-.3-3.3-1.35l-6.1-6c-1.05-1.05-1.4-1.85-1.4-3.25v-11.351c0-1.4.35-2.2,1.4-3.25l6.3-6.2c1-1,1.8-1.3,3.2-1.3h16.701c1.4,0,2.2.3,3.2,1.3l6.25,6.15ZM245.417,30.177h-11.201l-2.851,2.8v7.95l2.9,2.85h11.25l2.8-2.75.05-8.05-2.95-2.8Z"/>
        <path d="M265.715,27.277c-1.05-1-1.1-1.65-.1-2.65l4.9-4.951c1-1,1.6-1,2.6.05l9.801,10.301,9.8-10.301c1-1.05,1.601-1.05,2.601-.05l4.75,4.8c1,1,.95,1.6-.1,2.65l-9.75,9.551,10.201,10.101c1,1,1,1.6,0,2.6l-4.9,4.85c-1,1-1.6.95-2.6-.1l-9.951-10.5-10.05,10.551c-1,1.05-1.6,1.05-2.601.05l-4.7-4.75c-1-1-1-1.6,0-2.601l10.051-9.9-9.951-9.701Z"/>
      </g>
      <g>
        <path d="M54.346,49.079c0,1.4-.45,1.9-1.85,1.9l-6.55.05c-1.4,0-1.85-.45-1.8-1.95l.1-4.4h-13.951l.05,4.4c0,1.45-.45,1.95-1.85,1.95h-6.45c-1.4,0-1.9-.45-1.9-1.85l.05-18.601c0-1.4.3-2.15,1.3-3.2l7.101-7.45c1-1.05,1.8-1.35,3.2-1.35h11.051c1.4,0,2.2.3,3.2,1.35l7,7.3c1,1.05,1.3,1.85,1.3,3.25v18.602ZM40.095,28.077h-5.65l-4.15,4v3.9h13.951l.1-3.8-4.25-4.1Z" fill="#bcbcbc"/>
        <path d="M66.293,50.979c-1.4,0-1.9-.5-1.9-1.9v-28.202c0-1.4.5-1.9,1.9-1.9h24.301c1.4,0,2.2.3,3.2,1.3l5.9,5.95c1,1,1.3,1.8,1.3,3.2v11.151c0,1.4-.35,2.25-1.35,3.25l-5.8,5.8c-1,1-1.85,1.35-3.25,1.35h-24.301ZM74.694,41.428h12.75l2.4-2.45v-7.9l-2.5-2.55h-12.651v12.9Z" fill="#bcbcbc"/>
        <path d="M112.493,50.979c-1.4,0-1.9-.5-1.9-1.9v-28.202c0-1.4.5-1.9,1.9-1.9h24.302c1.4,0,2.2.3,3.2,1.3l5.9,5.95c1,1,1.3,1.8,1.3,3.2v11.151c0,1.4-.35,2.25-1.35,3.25l-5.8,5.8c-1,1-1.85,1.35-3.25,1.35h-24.302ZM120.894,41.428h12.75l2.4-2.45v-7.9l-2.5-2.55h-12.651v12.9Z" fill="#bcbcbc"/>
        <path d="M156.792,20.827c0-1.4.5-1.9,1.9-1.9h6.5c1.4,0,1.9.45,1.9,1.9v28.302c0,1.4-.5,1.9-1.9,1.9h-6.5c-1.4,0-1.9-.5-1.9-1.9v-28.302Z" fill="#bcbcbc"/>
        <path d="M199.294,20.777c0-1.4.5-1.85,1.9-1.85h6.601c1.4,0,1.9.45,1.9,1.85l-.05,15.501c0,1.4-.3,2.15-1.3,3.15l-13.601,13.401c-1,1-1.65,1-2.7-.05l-13.551-13.301c-1.05-1.05-1.4-1.8-1.4-3.2l-.05-15.501c0-1.4.5-1.85,1.9-1.85h6.601c1.4,0,1.9.45,1.9,1.85l-.05,13.801,6,6.3,6-6.25-.1-13.851Z" fill="#bcbcbc"/>
        <path d="M255.545,26.077c1,.95,1.3,1.75,1.3,3.15l.05,11.451c0,1.4-.35,2.15-1.4,3.2l-6.201,6.101c-1.05,1.05-1.9,1.35-3.3,1.35h-16.701c-1.4,0-2.25-.3-3.3-1.35l-6.1-6c-1.05-1.05-1.4-1.85-1.4-3.25v-11.351c0-1.4.35-2.2,1.4-3.25l6.3-6.2c1-1,1.8-1.3,3.2-1.3h16.701c1.4,0,2.2.3,3.2,1.3l6.25,6.15ZM243.294,28.177h-11.201l-2.851,2.8v7.95l2.9,2.85h11.25l2.8-2.75.05-8.05-2.95-2.8Z" fill="#bcbcbc"/>
        <path d="M263.593,25.277c-1.05-1-1.1-1.65-.1-2.65l4.9-4.951c1-1,1.6-1,2.6.05l9.801,10.301,9.8-10.301c1-1.05,1.601-1.05,2.601-.05l4.75,4.8c1,1,.95,1.6-.1,2.65l-9.75,9.551,10.201,10.101c1,1,1,1.6,0,2.6l-4.9,4.85c-1,1-1.6.95-2.6-.1l-9.951-10.5-10.05,10.551c-1,1.05-1.6,1.05-2.601.05l-4.7-4.75c-1-1-1-1.6,0-2.601l10.051-9.9-9.951-9.701Z" fill="#bcbcbc"/>
      </g>
    </g>
  </g>
</svg>