<?xml version="1.0" encoding="UTF-8"?>
<svg xmlns="http://www.w3.org/2000/svg" width="1000" height="750" viewBox="0 0 1000 750">
  <g id="background">
    <rect width="1000" height="750"/>
  </g>
  <g id="panels">
    <g>
      <rect x="7" y="7" width="986" height="56" fill="#25252d"/>
      <polygon points="7 7 5 5 995 5 993 7 7 7" fill="#606072"/>
      <polygon points="993 63 995 65 5 65 7 63 993 63" fill="#131316"/>
      <polygon points="993 7 995 5 995 65 993 63 993 7" fill="#3f3f49"/>
      <polygon points="7 63 5 65 5 5 7 7 7 63" fill="#4f4f5b"/>
    </g>
    <g>
      <rect x="7" y="622" width="986" height="121" fill="#25252d"/>
      <polygon points="7 622 5 620 995 620 993 622 7 622" fill="#606072"/>
      <polygon points="993 743 995 745 5 745 7 743 993 743" fill="#131316"/>
      <polygon points="993 622 995 620 995 745 993 743 993 622" fill="#3f3f49"/>
      <polygon points="7 743 5 745 5 620 7 622 7 743" fill="#4f4f5b"/>
    </g>
    <g>
      <polygon points="7 69 5 67 995 67 993 69 7 69" fill="#606072"/>
      <polygon points="797 464 795 466 5 466 7 464 797 464" fill="#131316"/>
      <polygon points="993 69 995 67 995 500.75 993 498.75 993 69" fill="#3f3f49"/>
      <polygon points="7 464 5 466 5 67 7 69 7 464" fill="#4f4f5b"/>
      <polygon points="7 69 7 464 797 464 797 498.75 993 498.75 993 69 7 69" fill="#25252d"/>
      <polygon points="993 498.75 995 500.75 795 500.75 797 498.75 993 498.75" fill="#131316"/>
      <polyline points="797 464 797 498.75 795 500.75 795 466" fill="#4f4f5b"/>
    </g>
    <g>
      <rect x="7" y="470" width="172" height="146" fill="#25252d"/>
      <polygon points="7 470 5 468 181 468 179 470 7 470" fill="#606072"/>
      <polygon points="179 616 181 618 5 618 7 616 179 616" fill="#131316"/>
      <polygon points="179 470 181 468 181 618 179 616 179 470" fill="#3f3f49"/>
      <polygon points="7 616 5 618 5 468 7 470 7 616" fill="#4f4f5b"/>
      <rect x="185" y="470" width="99" height="146" fill="#25252d"/>
      <polygon points="185 470 183 468 286 468 284 470 185 470" fill="#606072"/>
      <polygon points="284 616 286 618 183 618 185 616 284 616" fill="#131316"/>
      <polygon points="284 470 286 468 286 618 284 616 284 470" fill="#3f3f49"/>
      <polygon points="185 616 183 618 183 468 185 470 185 616" fill="#4f4f5b"/>
      <rect x="290" y="470" width="227" height="146" fill="#25252d"/>
      <polygon points="290 470 288 468 519 468 517 470 290 470" fill="#606072"/>
      <polygon points="517 616 519 618 288 618 290 616 517 616" fill="#131316"/>
      <polygon points="517 470 519 468 519 618 517 616 517 470" fill="#3f3f49"/>
      <polygon points="290 616 288 618 288 468 290 470 290 616" fill="#4f4f5b"/>
      <rect x="523" y="470" width="100" height="146" fill="#25252d"/>
      <polygon points="523 470 521 468 625 468 623 470 523 470" fill="#606072"/>
      <polygon points="623 616 625 618 521 618 523 616 623 616" fill="#131316"/>
      <polygon points="623 470 625 468 625 618 623 616 623 470" fill="#3f3f49"/>
      <polygon points="523 616 521 618 521 468 523 470 523 616" fill="#4f4f5b"/>
      <rect x="629" y="470" width="162" height="146" fill="#25252d"/>
      <polygon points="629 470 627 468 793 468 791 470 629 470" fill="#606072"/>
      <polygon points="791 616 793 618 627 618 629 616 791 616" fill="#131316"/>
      <polygon points="791 470 793 468 793 618 791 616 791 470" fill="#3f3f49"/>
      <polygon points="629 616 627 618 627 468 629 470 629 616" fill="#4f4f5b"/>
    </g>
    <g>
      <rect x="797" y="505" width="196" height="111" fill="#25252d"/>
      <polygon points="797 505 795 503 995 503 993 505 797 505" fill="#606072"/>
      <polygon points="993 616 995 618 795 618 797 616 993 616" fill="#131316"/>
      <polygon points="993 505 995 503 995 618 993 616 993 505" fill="#3f3f49"/>
      <polygon points="797 616 795 618 795 503 797 505 797 616" fill="#4f4f5b"/>
    </g>
  </g>
  <g id="title">
    <g>
      <g>
        <path d="M172.414,51.079c0,1.4-.45,1.9-1.85,1.9l-6.55.05c-1.4,0-1.85-.45-1.8-1.95l.1-4.4h-13.951l.05,4.4c0,1.45-.45,1.95-1.85,1.95h-6.45c-1.4,0-1.9-.45-1.9-1.85l.05-18.601c0-1.4.3-2.15,1.3-3.2l7.101-7.45c1-1.05,1.8-1.35,3.2-1.35h11.051c1.4,0,2.2.3,3.2,1.35l7,7.3c1,1.05,1.3,1.85,1.3,3.25v18.602ZM158.163,30.077h-5.65l-4.15,4v3.9h13.951l.1-3.8-4.25-4.1Z"/>
        <path d="M184.362,52.979c-1.4,0-1.9-.5-1.9-1.9v-28.202c0-1.4.5-1.9,1.9-1.9h24.301c1.4,0,2.2.3,3.2,1.3l5.9,5.95c1,1,1.3,1.8,1.3,3.2v11.151c0,1.4-.35,2.25-1.35,3.25l-5.8,5.8c-1,1-1.85,1.35-3.25,1.35h-24.301ZM192.762,43.428h12.75l2.4-2.45v-7.9l-2.5-2.55h-12.651v12.9Z"/>
        <path d="M230.561,52.979c-1.4,0-1.9-.5-1.9-1.9v-28.202c0-1.4.5-1.9,1.9-1.9h24.302c1.4,0,2.2.3,3.2,1.3l5.9,5.95c1,1,1.3,1.8,1.3,3.2v11.151c0,1.4-.35,2.25-1.35,3.25l-5.8,5.8c-1,1-1.85,1.35-3.25,1.35h-24.302ZM238.962,43.428h12.75l2.4-2.45v-7.9l-2.5-2.55h-12.651v12.9Z"/>
        <path d="M274.861,22.827c0-1.4.5-1.9,1.9-1.9h6.5c1.4,0,1.9.45,1.9,1.9v28.302c0,1.4-.5,1.9-1.9,1.9h-6.5c-1.4,0-1.9-.5-1.9-1.9v-28.302Z"/>
        <path d="M317.362,22.777c0-1.4.5-1.85,1.9-1.85h6.601c1.4,0,1.9.45,1.9,1.85l-.05,15.501c0,1.4-.3,2.15-1.3,3.15l-13.601,13.401c-1,1-1.65,1-2.7-.05l-13.551-13.301c-1.05-1.05-1.4-1.8-1.4-3.2l-.05-15.501c0-1.4.5-1.85,1.9-1.85h6.601c1.4,0,1.9.45,1.9,1.85l-.05,13.801,6,6.3,6-6.25-.1-13.851Z"/>
        <path d="M373.613,28.077c1,.95,1.3,1.75,1.3,3.15l.05,11.451c0,1.4-.35,2.15-1.4,3.2l-6.201,6.101c-1.05,1.05-1.9,1.35-3.3,1.35h-16.701c-1.4,0-2.25-.3-3.3-1.35l-6.1-6c-1.05-1.05-1.4-1.85-1.4-3.25v-11.351c0-1.4.35-2.2,1.4-3.25l6.3-6.2c1-1,1.8-1.3,3.2-1.3h16.701c1.4,0,2.2.3,3.2,1.3l6.25,6.15ZM361.363,30.177h-11.201l-2.851,2.8v7.95l2.9,2.85h11.25l2.8-2.75.05-8.05-2.95-2.8Z"/>
        <path d="M381.661,27.277c-1.05-1-1.1-1.65-.1-2.65l4.9-4.951c1-1,1.6-1,2.6.05l9.801,10.301,9.8-10.301c1-1.05,1.601-1.05,2.601-.05l4.75,4.8c1,1,.95,1.6-.1,2.65l-9.75,9.551,10.201,10.101c1,1,1,1.6,0,2.6l-4.9,4.85c-1,1-1.6.95-2.6-.1l-9.951-10.5-10.05,10.551c-1,1.05-1.6,1.05-2.601.05l-4.7-4.75c-1-1-1-1.6,0-2.601l10.051-9.9-9.951-9.701Z"/>
      </g>
      <g>
        <path d="M170.292,49.079c0,1.4-.45,1.9-1.85,1.9l-6.55.05c-1.4,0-1.85-.45-1.8-1.95l.1-4.4h-13.951l.05,4.4c0,1.45-.45,1.95-1.85,1.95h-6.45c-1.4,0-1.9-.45-1.9-1.85l.05-18.601c0-1.4.3-2.15,1.3-3.2l7.101-7.45c1-1.05,1.8-1.35,3.2-1.35h11.051c1.4,0,2.2.3,3.2,1.35l7,7.3c1,1.05,1.3,1.85,1.3,3.25v18.602ZM156.041,28.077h-5.65l-4.15,4v3.9h13.951l.1-3.8-4.25-4.1Z" fill="#bcbcbc"/>
        <path d="M182.24,50.979c-1.4,0-1.9-.5-1.9-1.9v-28.202c0-1.4.5-1.9,1.9-1.9h24.301c1.4,0,2.2.3,3.2,1.3l5.9,5.95c1,1,1.3,1.8,1.3,3.2v11.151c0,1.4-.35,2.25-1.35,3.25l-5.8,5.8c-1,1-1.85,1.35-3.25,1.35h-24.301ZM190.64,41.428h12.75l2.4-2.45v-7.9l-2.5-2.55h-12.651v12.9Z" fill="#bcbcbc"/>
        <path d="M228.439,50.979c-1.4,0-1.9-.5-1.9-1.9v-28.202c0-1.4.5-1.9,1.9-1.9h24.302c1.4,0,2.2.3,3.2,1.3l5.9,5.95c1,1,1.3,1.8,1.3,3.2v11.151c0,1.4-.35,2.25-1.35,3.25l-5.8,5.8c-1,1-1.85,1.35-3.25,1.35h-24.302ZM236.84,41.428h12.75l2.4-2.45v-7.9l-2.5-2.55h-12.651v12.9Z" fill="#bcbcbc"/>
        <path d="M272.739,20.827c0-1.4.5-1.9,1.9-1.9h6.5c1.4,0,1.9.45,1.9,1.9v28.302c0,1.4-.5,1.9-1.9,1.9h-6.5c-1.4,0-1.9-.5-1.9-1.9v-28.302Z" fill="#bcbcbc"/>
        <path d="M315.24,20.777c0-1.4.5-1.85,1.9-1.85h6.601c1.4,0,1.9.45,1.9,1.85l-.05,15.501c0,1.4-.3,2.15-1.3,3.15l-13.601,13.401c-1,1-1.65,1-2.7-.05l-13.551-13.301c-1.05-1.05-1.4-1.8-1.4-3.2l-.05-15.501c0-1.4.5-1.85,1.9-1.85h6.601c1.4,0,1.9.45,1.9,1.85l-.05,13.801,6,6.3,6-6.25-.1-13.851Z" fill="#bcbcbc"/>
        <path d="M371.491,26.077c1,.95,1.3,1.75,1.3,3.15l.05,11.451c0,1.4-.35,2.15-1.4,3.2l-6.201,6.101c-1.05,1.05-1.9,1.35-3.3,1.35h-16.701c-1.4,0-2.25-.3-3.3-1.35l-6.1-6c-1.05-1.05-1.4-1.85-1.4-3.25v-11.351c0-1.4.35-2.2,1.4-3.25l6.3-6.2c1-1,1.8-1.3,3.2-1.3h16.701c1.4,0,2.2.3,3.2,1.3l6.25,6.15ZM359.241,28.177h-11.201l-2.851,2.8v7.95l2.9,2.85h11.25l2.8-2.75.05-8.05-2.95-2.8Z" fill="#bcbcbc"/>
        <path d="M379.539,25.277c-1.05-1-1.1-1.65-.1-2.65l4.9-4.951c1-1,1.6-1,2.6.05l9.801,10.301,9.8-10.301c1-1.05,1.601-1.05,2.601-.05l4.75,4.8c1,1,.95,1.6-.1,2.65l-9.75,9.551,10.201,10.101c1,1,1,1.6,0,2.6l-4.9,4.85c-1,1-1.6.95-2.6-.1l-9.951-10.5-10.05,10.551c-1,1.05-1.6,1.05-2.601.05l-4.7-4.75c-1-1-1-1.6,0-2.601l10.051-9.9-9.951-9.701Z" fill="#bcbcbc"/>
      </g>
    </g>
    <g>
      <polygon points="122.124 52.5 119.124 52.5 120.624 51 122.124 52.5" fill="#606072"/>
      <g>
        <polygon points="120.624 51 119.124 52.5 119.124 21.5 120.624 23 120.624 51" fill="#3f3f49"/>
        <polygon points="120.624 23 122.124 21.5 122.124 52.5 120.624 51 120.624 23" fill="#4f4f5b"/>
        <polygon points="120.624 23 119.124 21.5 122.124 21.5 120.624 23" fill="#131316"/>
      </g>
      <polygon points="109.124 44.5 106.124 44.5 107.624 43 109.124 44.5" fill="#606072"/>
      <g>
        <polygon points="107.624 43 106.124 44.5 106.124 17.5 107.624 19 107.624 43" fill="#3f3f49"/>
        <polygon points="107.624 19 109.124 17.5 109.124 44.5 107.624 43 107.624 19" fill="#4f4f5b"/>
        <polygon points="107.624 19 106.124 17.5 109.124 17.5 107.624 19" fill="#131316"/>
      </g>
      <polygon points="96.124 48.5 93.124 48.5 94.624 47 96.124 48.5" fill="#606072"/>
      <g>
        <polygon points="94.624 47 93.124 48.5 93.124 25.5 94.624 27 94.624 47" fill="#3f3f49"/>
        <polygon points="94.624 27 96.124 25.5 96.124 48.5 94.624 47 94.624 27" fill="#4f4f5b"/>
        <polygon points="94.624 27 93.124 25.5 96.124 25.5 94.624 27" fill="#131316"/>
      </g>
      <polygon points="83.124 40.5 80.124 40.5 81.624 39 83.124 40.5" fill="#606072"/>
      <g>
        <polygon points="81.624 39 80.124 40.5 80.124 21.5 81.624 23 81.624 39" fill="#3f3f49"/>
        <polygon points="81.624 23 83.124 21.5 83.124 40.5 81.624 39 81.624 23" fill="#4f4f5b"/>
        <polygon points="81.624 23 80.124 21.5 83.124 21.5 81.624 23" fill="#131316"/>
      </g>
      <polygon points="70.124 44.5 67.124 44.5 68.624 43 70.124 44.5" fill="#606072"/>
      <g>
        <polygon points="68.624 43 67.124 44.5 67.124 29.5 68.624 31 68.624 43" fill="#3f3f49"/>
        <polygon points="68.624 31 70.124 29.5 70.124 44.5 68.624 43 68.624 31" fill="#4f4f5b"/>
        <polygon points="68.624 31 67.124 29.5 70.124 29.5 68.624 31" fill="#131316"/>
      </g>
      <polygon points="57.124 36.5 54.124 36.5 55.624 35 57.124 36.5" fill="#606072"/>
      <g>
        <polygon points="55.624 35 54.124 36.5 54.124 25.5 55.624 27 55.624 35" fill="#3f3f49"/>
        <polygon points="55.624 27 57.124 25.5 57.124 36.5 55.624 35 55.624 27" fill="#4f4f5b"/>
        <polygon points="55.624 27 54.124 25.5 57.124 25.5 55.624 27" fill="#131316"/>
      </g>
      <polygon points="44.124 40.5 41.124 40.5 42.624 39 44.124 40.5" fill="#606072"/>
      <g>
        <polygon points="42.624 39 41.124 40.5 41.124 33.5 42.624 35 42.624 39" fill="#3f3f49"/>
        <polygon points="42.624 35 44.124 33.5 44.124 40.5 42.624 39 42.624 35" fill="#4f4f5b"/>
        <polygon points="42.624 35 41.124 33.5 44.124 33.5 42.624 35" fill="#131316"/>
      </g>
    </g>
    <g>
      <polygon points="497.876 44.5 494.876 44.5 496.376 43 497.876 44.5" fill="#606072"/>
      <g>
        <polygon points="496.376 43 494.876 44.5 494.876 33.5 496.376 35 496.376 43" fill="#3f3f49"/>
        <polygon points="496.376 35 497.876 33.5 497.876 44.5 496.376 43 496.376 35" fill="#4f4f5b"/>
        <polygon points="496.376 35 494.876 33.5 497.876 33.5 496.376 35" fill="#131316"/>
      </g>
      <polygon points="484.876 40.5 481.876 40.5 483.376 39 484.876 40.5" fill="#606072"/>
      <g>
        <polygon points="483.376 39 481.876 40.5 481.876 25.5 483.376 27 483.376 39" fill="#3f3f49"/>
        <polygon points="483.376 27 484.876 25.5 484.876 40.5 483.376 39 483.376 27" fill="#4f4f5b"/>
        <polygon points="483.376 27 481.876 25.5 484.876 25.5 483.376 27" fill="#131316"/>
      </g>
      <polygon points="471.876 48.5 468.876 48.5 470.376 47 471.876 48.5" fill="#606072"/>
      <g>
        <polygon points="470.376 47 468.876 48.5 468.876 29.5 470.376 31 470.376 47" fill="#3f3f49"/>
        <polygon points="470.376 31 471.876 29.5 471.876 48.5 470.376 47 470.376 31" fill="#4f4f5b"/>
        <polygon points="470.376 31 468.876 29.5 471.876 29.5 470.376 31" fill="#131316"/>
      </g>
      <polygon points="458.876 44.5 455.876 44.5 457.376 43 458.876 44.5" fill="#606072"/>
      <g>
        <polygon points="457.376 43 455.876 44.5 455.876 21.5 457.376 23 457.376 43" fill="#3f3f49"/>
        <polygon points="457.376 23 458.876 21.5 458.876 44.5 457.376 43 457.376 23" fill="#4f4f5b"/>
        <polygon points="457.376 23 455.876 21.5 458.876 21.5 457.376 23" fill="#131316"/>
      </g>
      <polygon points="445.876 52.5 442.876 52.5 444.376 51 445.876 52.5" fill="#606072"/>
      <g>
        <polygon points="444.376 51 442.876 52.5 442.876 25.5 444.376 27 444.376 51" fill="#3f3f49"/>
        <polygon points="444.376 27 445.876 25.5 445.876 52.5 444.376 51 444.376 27" fill="#4f4f5b"/>
        <polygon points="444.376 27 442.876 25.5 445.876 25.5 444.376 27" fill="#131316"/>
      </g>
      <polygon points="432.876 48.5 429.876 48.5 431.376 47 432.876 48.5" fill="#606072"/>
      <g>
        <polygon points="431.376 47 429.876 48.5 429.876 17.5 431.376 19 431.376 47" fill="#3f3f49"/>
        <polygon points="431.376 19 432.876 17.5 432.876 48.5 431.376 47 431.376 19" fill="#4f4f5b"/>
        <polygon points="431.376 19 429.876 17.5 432.876 17.5 431.376 19" fill="#131316"/>
      </g>
      <polygon points="510.876 36.5 507.876 36.5 509.376 35 510.876 36.5" fill="#606072"/>
      <g>
        <polygon points="509.376 35 507.876 36.5 507.876 29.5 509.376 31 509.376 35" fill="#3f3f49"/>
        <polygon points="509.376 31 510.876 29.5 510.876 36.5 509.376 35 509.376 31" fill="#4f4f5b"/>
        <polygon points="509.376 31 507.876 29.5 510.876 29.5 509.376 31" fill="#131316"/>
      </g>
    </g>
  </g>
</svg>