<?xml version="1.0" encoding="UTF-8"?>
<svg id="Layer_1" xmlns="http://www.w3.org/2000/svg" version="1.1" viewBox="0 0 632.76 632.67">
  <!-- Generator: Adobe Illustrator 30.3.0, SVG Export Plug-In . SVG Version: 2.1.3 Build 182)  -->
  <path d="M632.76,286.02v60.63c-.37,11.42-8.52,21.1-19.71,23.41l-49.77,8.59c-1.58.28-3.2.37-4.8.25-5.83,22.59-14.82,44.25-26.69,64.34,1.24,1.04,2.34,2.22,3.28,3.54l29.09,41.26c6.32,9.55,5.24,22.19-2.61,30.53l-42.95,42.95c-8.34,7.81-20.95,8.88-30.48,2.57l-41.26-29.05c-1.33-.93-2.53-2.04-3.58-3.28-20.29,11.97-42.18,21-65.01,26.82.43,2.44.43,4.93,0,7.37l-7.66,44.34c-2.63,12.74-13.65,22.01-26.65,22.4h-55.16c-13-.39-24.03-9.66-26.65-22.4l-7.66-44.34c-.44-2.44-.44-4.93,0-7.37-22.83-5.82-44.72-14.85-65.01-26.82-1.05,1.23-2.25,2.32-3.58,3.24l-41.26,29.09c-9.55,6.32-22.19,5.24-30.53-2.61l-42.95-42.95c-7.79-8.33-8.85-20.92-2.57-30.44l29.09-41.26c.93-1.33,2.01-2.53,3.24-3.58-11.86-20.09-20.83-41.75-26.65-64.34-1.6.11-3.22.03-4.8-.25l-49.77-8.59c-11.2-2.3-19.35-11.98-19.71-23.41v-60.63c.35-11.43,8.51-21.11,19.71-23.41l49.77-8.59c1.58-.28,3.2-.35,4.8-.21,5.83-22.59,14.8-44.25,26.65-64.34-1.22-1.05-2.31-2.26-3.24-3.58l-29.09-41.26c-6.29-9.53-5.23-22.14,2.57-30.48l42.95-42.95c8.34-7.83,20.97-8.91,30.53-2.61l41.26,29.09c1.33.93,2.53,2.04,3.58,3.28,20.09-11.87,41.74-20.86,64.34-26.69-.14-1.6-.07-3.22.21-4.8l8.59-49.77c2.3-11.2,11.98-19.35,23.41-19.71h60.72c11.43.35,21.11,8.51,23.41,19.71l8.59,49.77c.27,1.58.35,3.2.21,4.8,22.59,5.84,44.25,14.82,64.34,26.69,1.05-1.25,2.25-2.35,3.58-3.28l41.26-29.09c9.54-6.3,22.15-5.22,30.48,2.61l42.95,42.95c7.83,8.33,8.91,20.94,2.61,30.48l-29.09,41.26c-.94,1.32-2.05,2.53-3.28,3.58,11.87,20.09,20.86,41.74,26.69,64.34,1.6-.14,3.22-.07,4.8.21l49.77,8.59c11.19,2.31,19.34,11.99,19.71,23.41h0ZM424.13,316.34c-.02-59.51-48.28-107.73-107.79-107.71s-107.73,48.28-107.71,107.79c.02,59.47,48.23,107.68,107.71,107.71,59.51.02,107.77-48.2,107.79-107.71v-.08Z" fill="#bcbcbc"/>
</svg>